<svg width="570" height="206" viewBox="0 0 570 206" fill="none" xmlns="http://www.w3.org/2000/svg">
<g opacity="0.1">
<path d="M139.243 69.5355L140.657 68.1213L139.95 67.4142L138.536 68.8284L137.121 67.4142L136.414 68.1213L137.829 69.5355L136.414 70.9497L137.121 71.6569L138.536 70.2426L139.95 71.6569L140.657 70.9497L139.243 69.5355Z" fill="white"/>
<path d="M162.243 69.5355L163.657 68.1213L162.95 67.4142L161.536 68.8284L160.121 67.4142L159.414 68.1213L160.829 69.5355L159.414 70.9497L160.121 71.6569L161.536 70.2426L162.95 71.6569L163.657 70.9497L162.243 69.5355Z" fill="white"/>
<path d="M139.243 47.5355L140.657 46.1213L139.95 45.4142L138.536 46.8284L137.121 45.4142L136.414 46.1213L137.829 47.5355L136.414 48.9497L137.121 49.6569L138.536 48.2426L139.95 49.6569L140.657 48.9497L139.243 47.5355Z" fill="white"/>
<path d="M162.243 47.5355L163.657 46.1213L162.95 45.4142L161.536 46.8284L160.121 45.4142L159.414 46.1213L160.829 47.5355L159.414 48.9497L160.121 49.6569L161.536 48.2426L162.95 49.6569L163.657 48.9497L162.243 47.5355Z" fill="white"/>
<path d="M184.243 69.5355L185.657 68.1213L184.95 67.4142L183.536 68.8284L182.121 67.4142L181.414 68.1213L182.829 69.5355L181.414 70.9497L182.121 71.6569L183.536 70.2426L184.95 71.6569L185.657 70.9497L184.243 69.5355Z" fill="white"/>
<path d="M207.243 69.5355L208.657 68.1213L207.95 67.4142L206.536 68.8284L205.121 67.4142L204.414 68.1213L205.829 69.5355L204.414 70.9497L205.121 71.6569L206.536 70.2426L207.95 71.6569L208.657 70.9497L207.243 69.5355Z" fill="white"/>
<path d="M184.243 47.5355L185.657 46.1213L184.95 45.4142L183.536 46.8284L182.121 45.4142L181.414 46.1213L182.829 47.5355L181.414 48.9497L182.121 49.6569L183.536 48.2426L184.95 49.6569L185.657 48.9497L184.243 47.5355Z" fill="white"/>
<path d="M207.243 47.5355L208.657 46.1213L207.95 45.4142L206.536 46.8284L205.121 45.4142L204.414 46.1213L205.829 47.5355L204.414 48.9497L205.121 49.6569L206.536 48.2426L207.95 49.6569L208.657 48.9497L207.243 47.5355Z" fill="white"/>
<path d="M139.243 25.5355L140.657 24.1213L139.95 23.4142L138.536 24.8284L137.121 23.4142L136.414 24.1213L137.829 25.5355L136.414 26.9497L137.121 27.6569L138.536 26.2426L139.95 27.6569L140.657 26.9497L139.243 25.5355Z" fill="white"/>
<path d="M162.243 25.5355L163.657 24.1213L162.95 23.4142L161.536 24.8284L160.121 23.4142L159.414 24.1213L160.829 25.5355L159.414 26.9497L160.121 27.6569L161.536 26.2426L162.95 27.6569L163.657 26.9497L162.243 25.5355Z" fill="white"/>
<path d="M139.243 3.53553L140.657 2.12132L139.95 1.41421L138.536 2.82843L137.121 1.41421L136.414 2.12132L137.829 3.53553L136.414 4.94975L137.121 5.65685L138.536 4.24264L139.95 5.65685L140.657 4.94975L139.243 3.53553Z" fill="white"/>
<path d="M162.243 3.53553L163.657 2.12132L162.95 1.41421L161.536 2.82843L160.121 1.41421L159.414 2.12132L160.829 3.53553L159.414 4.94975L160.121 5.65685L161.536 4.24264L162.95 5.65685L163.657 4.94975L162.243 3.53553Z" fill="white"/>
<path d="M184.243 25.5355L185.657 24.1213L184.95 23.4142L183.536 24.8284L182.121 23.4142L181.414 24.1213L182.829 25.5355L181.414 26.9497L182.121 27.6569L183.536 26.2426L184.95 27.6569L185.657 26.9497L184.243 25.5355Z" fill="white"/>
<path d="M207.243 25.5355L208.657 24.1213L207.95 23.4142L206.536 24.8284L205.121 23.4142L204.414 24.1213L205.829 25.5355L204.414 26.9497L205.121 27.6569L206.536 26.2426L207.95 27.6569L208.657 26.9497L207.243 25.5355Z" fill="white"/>
<path d="M184.243 3.53553L185.657 2.12132L184.95 1.41421L183.536 2.82843L182.121 1.41421L181.414 2.12132L182.829 3.53553L181.414 4.94975L182.121 5.65685L183.536 4.24264L184.95 5.65685L185.657 4.94975L184.243 3.53553Z" fill="white"/>
<path d="M207.243 3.53553L208.657 2.12132L207.95 1.41421L206.536 2.82843L205.121 1.41421L204.414 2.12132L205.829 3.53553L204.414 4.94975L205.121 5.65685L206.536 4.24264L207.95 5.65685L208.657 4.94975L207.243 3.53553Z" fill="white"/>
<path d="M229.243 69.5355L230.657 68.1213L229.95 67.4142L228.536 68.8284L227.121 67.4142L226.414 68.1213L227.829 69.5355L226.414 70.9497L227.121 71.6569L228.536 70.2426L229.95 71.6569L230.657 70.9497L229.243 69.5355Z" fill="white"/>
<path d="M252.243 69.5355L253.657 68.1213L252.95 67.4142L251.536 68.8284L250.121 67.4142L249.414 68.1213L250.829 69.5355L249.414 70.9497L250.121 71.6569L251.536 70.2426L252.95 71.6569L253.657 70.9497L252.243 69.5355Z" fill="white"/>
<path d="M229.243 47.5355L230.657 46.1213L229.95 45.4142L228.536 46.8284L227.121 45.4142L226.414 46.1213L227.829 47.5355L226.414 48.9497L227.121 49.6569L228.536 48.2426L229.95 49.6569L230.657 48.9497L229.243 47.5355Z" fill="white"/>
<path d="M252.243 47.5355L253.657 46.1213L252.95 45.4142L251.536 46.8284L250.121 45.4142L249.414 46.1213L250.829 47.5355L249.414 48.9497L250.121 49.6569L251.536 48.2426L252.95 49.6569L253.657 48.9497L252.243 47.5355Z" fill="white"/>
<path d="M274.243 69.5355L275.657 68.1213L274.95 67.4142L273.536 68.8284L272.121 67.4142L271.414 68.1213L272.829 69.5355L271.414 70.9497L272.121 71.6569L273.536 70.2426L274.95 71.6569L275.657 70.9497L274.243 69.5355Z" fill="white"/>
<path d="M297.243 69.5355L298.657 68.1213L297.95 67.4142L296.536 68.8284L295.121 67.4142L294.414 68.1213L295.829 69.5355L294.414 70.9497L295.121 71.6569L296.536 70.2426L297.95 71.6569L298.657 70.9497L297.243 69.5355Z" fill="white"/>
<path d="M274.243 47.5355L275.657 46.1213L274.95 45.4142L273.536 46.8284L272.121 45.4142L271.414 46.1213L272.829 47.5355L271.414 48.9497L272.121 49.6569L273.536 48.2426L274.95 49.6569L275.657 48.9497L274.243 47.5355Z" fill="white"/>
<path d="M297.243 47.5355L298.657 46.1213L297.95 45.4142L296.536 46.8284L295.121 45.4142L294.414 46.1213L295.829 47.5355L294.414 48.9497L295.121 49.6569L296.536 48.2426L297.95 49.6569L298.657 48.9497L297.243 47.5355Z" fill="white"/>
<path d="M229.243 25.5355L230.657 24.1213L229.95 23.4142L228.536 24.8284L227.121 23.4142L226.414 24.1213L227.829 25.5355L226.414 26.9497L227.121 27.6569L228.536 26.2426L229.95 27.6569L230.657 26.9497L229.243 25.5355Z" fill="white"/>
<path d="M252.243 25.5355L253.657 24.1213L252.95 23.4142L251.536 24.8284L250.121 23.4142L249.414 24.1213L250.829 25.5355L249.414 26.9497L250.121 27.6569L251.536 26.2426L252.95 27.6569L253.657 26.9497L252.243 25.5355Z" fill="white"/>
<path d="M229.243 3.53553L230.657 2.12132L229.95 1.41421L228.536 2.82843L227.121 1.41421L226.414 2.12132L227.829 3.53553L226.414 4.94975L227.121 5.65685L228.536 4.24264L229.95 5.65685L230.657 4.94975L229.243 3.53553Z" fill="white"/>
<path d="M252.243 3.53553L253.657 2.12132L252.95 1.41421L251.536 2.82843L250.121 1.41421L249.414 2.12132L250.829 3.53553L249.414 4.94975L250.121 5.65685L251.536 4.24264L252.95 5.65685L253.657 4.94975L252.243 3.53553Z" fill="white"/>
<path d="M274.243 25.5355L275.657 24.1213L274.95 23.4142L273.536 24.8284L272.121 23.4142L271.414 24.1213L272.829 25.5355L271.414 26.9497L272.121 27.6569L273.536 26.2426L274.95 27.6569L275.657 26.9497L274.243 25.5355Z" fill="white"/>
<path d="M297.243 25.5355L298.657 24.1213L297.95 23.4142L296.536 24.8284L295.121 23.4142L294.414 24.1213L295.829 25.5355L294.414 26.9497L295.121 27.6569L296.536 26.2426L297.95 27.6569L298.657 26.9497L297.243 25.5355Z" fill="white"/>
<path d="M274.243 3.53553L275.657 2.12132L274.95 1.41421L273.536 2.82843L272.121 1.41421L271.414 2.12132L272.829 3.53553L271.414 4.94975L272.121 5.65685L273.536 4.24264L274.95 5.65685L275.657 4.94975L274.243 3.53553Z" fill="white"/>
<path d="M297.243 3.53553L298.657 2.12132L297.95 1.41421L296.536 2.82843L295.121 1.41421L294.414 2.12132L295.829 3.53553L294.414 4.94975L295.121 5.65685L296.536 4.24264L297.95 5.65685L298.657 4.94975L297.243 3.53553Z" fill="white"/>
<path d="M139.243 157.536L140.657 156.121L139.95 155.414L138.536 156.828L137.121 155.414L136.414 156.121L137.829 157.536L136.414 158.95L137.121 159.657L138.536 158.243L139.95 159.657L140.657 158.95L139.243 157.536Z" fill="white"/>
<path d="M162.243 157.536L163.657 156.121L162.95 155.414L161.536 156.828L160.121 155.414L159.414 156.121L160.829 157.536L159.414 158.95L160.121 159.657L161.536 158.243L162.95 159.657L163.657 158.95L162.243 157.536Z" fill="white"/>
<path d="M139.243 135.536L140.657 134.121L139.95 133.414L138.536 134.828L137.121 133.414L136.414 134.121L137.829 135.536L136.414 136.95L137.121 137.657L138.536 136.243L139.95 137.657L140.657 136.95L139.243 135.536Z" fill="white"/>
<path d="M162.243 135.536L163.657 134.121L162.95 133.414L161.536 134.828L160.121 133.414L159.414 134.121L160.829 135.536L159.414 136.95L160.121 137.657L161.536 136.243L162.95 137.657L163.657 136.95L162.243 135.536Z" fill="white"/>
<path d="M184.243 157.536L185.657 156.121L184.95 155.414L183.536 156.828L182.121 155.414L181.414 156.121L182.829 157.536L181.414 158.95L182.121 159.657L183.536 158.243L184.95 159.657L185.657 158.95L184.243 157.536Z" fill="white"/>
<path d="M207.243 157.536L208.657 156.121L207.95 155.414L206.536 156.828L205.121 155.414L204.414 156.121L205.829 157.536L204.414 158.95L205.121 159.657L206.536 158.243L207.95 159.657L208.657 158.95L207.243 157.536Z" fill="white"/>
<path d="M184.243 135.536L185.657 134.121L184.95 133.414L183.536 134.828L182.121 133.414L181.414 134.121L182.829 135.536L181.414 136.95L182.121 137.657L183.536 136.243L184.95 137.657L185.657 136.95L184.243 135.536Z" fill="white"/>
<path d="M207.243 135.536L208.657 134.121L207.95 133.414L206.536 134.828L205.121 133.414L204.414 134.121L205.829 135.536L204.414 136.95L205.121 137.657L206.536 136.243L207.95 137.657L208.657 136.95L207.243 135.536Z" fill="white"/>
<path d="M139.243 113.536L140.657 112.121L139.95 111.414L138.536 112.828L137.121 111.414L136.414 112.121L137.829 113.536L136.414 114.95L137.121 115.657L138.536 114.243L139.95 115.657L140.657 114.95L139.243 113.536Z" fill="white"/>
<path d="M162.243 113.536L163.657 112.121L162.95 111.414L161.536 112.828L160.121 111.414L159.414 112.121L160.829 113.536L159.414 114.95L160.121 115.657L161.536 114.243L162.95 115.657L163.657 114.95L162.243 113.536Z" fill="white"/>
<path d="M139.243 91.5355L140.657 90.1213L139.95 89.4142L138.536 90.8284L137.121 89.4142L136.414 90.1213L137.829 91.5355L136.414 92.9497L137.121 93.6569L138.536 92.2426L139.95 93.6569L140.657 92.9497L139.243 91.5355Z" fill="white"/>
<path d="M162.243 91.5355L163.657 90.1213L162.95 89.4142L161.536 90.8284L160.121 89.4142L159.414 90.1213L160.829 91.5355L159.414 92.9497L160.121 93.6569L161.536 92.2426L162.95 93.6569L163.657 92.9497L162.243 91.5355Z" fill="white"/>
<path d="M184.243 113.536L185.657 112.121L184.95 111.414L183.536 112.828L182.121 111.414L181.414 112.121L182.829 113.536L181.414 114.95L182.121 115.657L183.536 114.243L184.95 115.657L185.657 114.95L184.243 113.536Z" fill="white"/>
<path d="M207.243 113.536L208.657 112.121L207.95 111.414L206.536 112.828L205.121 111.414L204.414 112.121L205.829 113.536L204.414 114.95L205.121 115.657L206.536 114.243L207.95 115.657L208.657 114.95L207.243 113.536Z" fill="white"/>
<path d="M184.243 91.5355L185.657 90.1213L184.95 89.4142L183.536 90.8284L182.121 89.4142L181.414 90.1213L182.829 91.5355L181.414 92.9497L182.121 93.6569L183.536 92.2426L184.95 93.6569L185.657 92.9497L184.243 91.5355Z" fill="white"/>
<path d="M207.243 91.5355L208.657 90.1213L207.95 89.4142L206.536 90.8284L205.121 89.4142L204.414 90.1213L205.829 91.5355L204.414 92.9497L205.121 93.6569L206.536 92.2426L207.95 93.6569L208.657 92.9497L207.243 91.5355Z" fill="white"/>
<path d="M229.243 157.536L230.657 156.121L229.95 155.414L228.536 156.828L227.121 155.414L226.414 156.121L227.829 157.536L226.414 158.95L227.121 159.657L228.536 158.243L229.95 159.657L230.657 158.95L229.243 157.536Z" fill="white"/>
<path d="M252.243 157.536L253.657 156.121L252.95 155.414L251.536 156.828L250.121 155.414L249.414 156.121L250.829 157.536L249.414 158.95L250.121 159.657L251.536 158.243L252.95 159.657L253.657 158.95L252.243 157.536Z" fill="white"/>
<path d="M229.243 135.536L230.657 134.121L229.95 133.414L228.536 134.828L227.121 133.414L226.414 134.121L227.829 135.536L226.414 136.95L227.121 137.657L228.536 136.243L229.95 137.657L230.657 136.95L229.243 135.536Z" fill="white"/>
<path d="M252.243 135.536L253.657 134.121L252.95 133.414L251.536 134.828L250.121 133.414L249.414 134.121L250.829 135.536L249.414 136.95L250.121 137.657L251.536 136.243L252.95 137.657L253.657 136.95L252.243 135.536Z" fill="white"/>
<path d="M274.243 157.536L275.657 156.121L274.95 155.414L273.536 156.828L272.121 155.414L271.414 156.121L272.829 157.536L271.414 158.95L272.121 159.657L273.536 158.243L274.95 159.657L275.657 158.95L274.243 157.536Z" fill="white"/>
<path d="M297.243 157.536L298.657 156.121L297.95 155.414L296.536 156.828L295.121 155.414L294.414 156.121L295.829 157.536L294.414 158.95L295.121 159.657L296.536 158.243L297.95 159.657L298.657 158.95L297.243 157.536Z" fill="white"/>
<path d="M274.243 135.536L275.657 134.121L274.95 133.414L273.536 134.828L272.121 133.414L271.414 134.121L272.829 135.536L271.414 136.95L272.121 137.657L273.536 136.243L274.95 137.657L275.657 136.95L274.243 135.536Z" fill="white"/>
<path d="M297.243 135.536L298.657 134.121L297.95 133.414L296.536 134.828L295.121 133.414L294.414 134.121L295.829 135.536L294.414 136.95L295.121 137.657L296.536 136.243L297.95 137.657L298.657 136.95L297.243 135.536Z" fill="white"/>
<path d="M229.243 113.536L230.657 112.121L229.95 111.414L228.536 112.828L227.121 111.414L226.414 112.121L227.829 113.536L226.414 114.95L227.121 115.657L228.536 114.243L229.95 115.657L230.657 114.95L229.243 113.536Z" fill="white"/>
<path d="M252.243 113.536L253.657 112.121L252.95 111.414L251.536 112.828L250.121 111.414L249.414 112.121L250.829 113.536L249.414 114.95L250.121 115.657L251.536 114.243L252.95 115.657L253.657 114.95L252.243 113.536Z" fill="white"/>
<path d="M229.243 91.5355L230.657 90.1213L229.95 89.4142L228.536 90.8284L227.121 89.4142L226.414 90.1213L227.829 91.5355L226.414 92.9497L227.121 93.6569L228.536 92.2426L229.95 93.6569L230.657 92.9497L229.243 91.5355Z" fill="white"/>
<path d="M252.243 91.5355L253.657 90.1213L252.95 89.4142L251.536 90.8284L250.121 89.4142L249.414 90.1213L250.829 91.5355L249.414 92.9497L250.121 93.6569L251.536 92.2426L252.95 93.6569L253.657 92.9497L252.243 91.5355Z" fill="white"/>
<path d="M274.243 113.536L275.657 112.121L274.95 111.414L273.536 112.828L272.121 111.414L271.414 112.121L272.829 113.536L271.414 114.95L272.121 115.657L273.536 114.243L274.95 115.657L275.657 114.95L274.243 113.536Z" fill="white"/>
<path d="M297.243 113.536L298.657 112.121L297.95 111.414L296.536 112.828L295.121 111.414L294.414 112.121L295.829 113.536L294.414 114.95L295.121 115.657L296.536 114.243L297.95 115.657L298.657 114.95L297.243 113.536Z" fill="white"/>
<path d="M274.243 91.5355L275.657 90.1213L274.95 89.4142L273.536 90.8284L272.121 89.4142L271.414 90.1213L272.829 91.5355L271.414 92.9497L272.121 93.6569L273.536 92.2426L274.95 93.6569L275.657 92.9497L274.243 91.5355Z" fill="white"/>
<path d="M297.243 91.5355L298.657 90.1213L297.95 89.4142L296.536 90.8284L295.121 89.4142L294.414 90.1213L295.829 91.5355L294.414 92.9497L295.121 93.6569L296.536 92.2426L297.95 93.6569L298.657 92.9497L297.243 91.5355Z" fill="white"/>
<path d="M319.243 69.5355L320.657 68.1213L319.95 67.4142L318.536 68.8284L317.121 67.4142L316.414 68.1213L317.829 69.5355L316.414 70.9497L317.121 71.6569L318.536 70.2426L319.95 71.6569L320.657 70.9497L319.243 69.5355Z" fill="white"/>
<path d="M342.243 69.5355L343.657 68.1213L342.95 67.4142L341.536 68.8284L340.121 67.4142L339.414 68.1213L340.829 69.5355L339.414 70.9497L340.121 71.6569L341.536 70.2426L342.95 71.6569L343.657 70.9497L342.243 69.5355Z" fill="white"/>
<path d="M319.243 47.5355L320.657 46.1213L319.95 45.4142L318.536 46.8284L317.121 45.4142L316.414 46.1213L317.829 47.5355L316.414 48.9497L317.121 49.6569L318.536 48.2426L319.95 49.6569L320.657 48.9497L319.243 47.5355Z" fill="white"/>
<path d="M342.243 47.5355L343.657 46.1213L342.95 45.4142L341.536 46.8284L340.121 45.4142L339.414 46.1213L340.829 47.5355L339.414 48.9497L340.121 49.6569L341.536 48.2426L342.95 49.6569L343.657 48.9497L342.243 47.5355Z" fill="white"/>
<path d="M364.243 69.5355L365.657 68.1213L364.95 67.4142L363.536 68.8284L362.121 67.4142L361.414 68.1213L362.829 69.5355L361.414 70.9497L362.121 71.6569L363.536 70.2426L364.95 71.6569L365.657 70.9497L364.243 69.5355Z" fill="white"/>
<path d="M387.243 69.5355L388.657 68.1213L387.95 67.4142L386.536 68.8284L385.121 67.4142L384.414 68.1213L385.829 69.5355L384.414 70.9497L385.121 71.6569L386.536 70.2426L387.95 71.6569L388.657 70.9497L387.243 69.5355Z" fill="white"/>
<path d="M364.243 47.5355L365.657 46.1213L364.95 45.4142L363.536 46.8284L362.121 45.4142L361.414 46.1213L362.829 47.5355L361.414 48.9497L362.121 49.6569L363.536 48.2426L364.95 49.6569L365.657 48.9497L364.243 47.5355Z" fill="white"/>
<path d="M387.243 47.5355L388.657 46.1213L387.95 45.4142L386.536 46.8284L385.121 45.4142L384.414 46.1213L385.829 47.5355L384.414 48.9497L385.121 49.6569L386.536 48.2426L387.95 49.6569L388.657 48.9497L387.243 47.5355Z" fill="white"/>
<path d="M319.243 25.5355L320.657 24.1213L319.95 23.4142L318.536 24.8284L317.121 23.4142L316.414 24.1213L317.829 25.5355L316.414 26.9497L317.121 27.6569L318.536 26.2426L319.95 27.6569L320.657 26.9497L319.243 25.5355Z" fill="white"/>
<path d="M342.243 25.5355L343.657 24.1213L342.95 23.4142L341.536 24.8284L340.121 23.4142L339.414 24.1213L340.829 25.5355L339.414 26.9497L340.121 27.6569L341.536 26.2426L342.95 27.6569L343.657 26.9497L342.243 25.5355Z" fill="white"/>
<path d="M319.243 3.53553L320.657 2.12132L319.95 1.41421L318.536 2.82843L317.121 1.41421L316.414 2.12132L317.829 3.53553L316.414 4.94975L317.121 5.65685L318.536 4.24264L319.95 5.65685L320.657 4.94975L319.243 3.53553Z" fill="white"/>
<path d="M342.243 3.53553L343.657 2.12132L342.95 1.41421L341.536 2.82843L340.121 1.41421L339.414 2.12132L340.829 3.53553L339.414 4.94975L340.121 5.65685L341.536 4.24264L342.95 5.65685L343.657 4.94975L342.243 3.53553Z" fill="white"/>
<path d="M364.243 25.5355L365.657 24.1213L364.95 23.4142L363.536 24.8284L362.121 23.4142L361.414 24.1213L362.829 25.5355L361.414 26.9497L362.121 27.6569L363.536 26.2426L364.95 27.6569L365.657 26.9497L364.243 25.5355Z" fill="white"/>
<path d="M387.243 25.5355L388.657 24.1213L387.95 23.4142L386.536 24.8284L385.121 23.4142L384.414 24.1213L385.829 25.5355L384.414 26.9497L385.121 27.6569L386.536 26.2426L387.95 27.6569L388.657 26.9497L387.243 25.5355Z" fill="white"/>
<path d="M364.243 3.53553L365.657 2.12132L364.95 1.41421L363.536 2.82843L362.121 1.41421L361.414 2.12132L362.829 3.53553L361.414 4.94975L362.121 5.65685L363.536 4.24264L364.95 5.65685L365.657 4.94975L364.243 3.53553Z" fill="white"/>
<path d="M387.243 3.53553L388.657 2.12132L387.95 1.41421L386.536 2.82843L385.121 1.41421L384.414 2.12132L385.829 3.53553L384.414 4.94975L385.121 5.65685L386.536 4.24264L387.95 5.65685L388.657 4.94975L387.243 3.53553Z" fill="white"/>
<path d="M409.243 69.5355L410.657 68.1213L409.95 67.4142L408.536 68.8284L407.121 67.4142L406.414 68.1213L407.829 69.5355L406.414 70.9497L407.121 71.6569L408.536 70.2426L409.95 71.6569L410.657 70.9497L409.243 69.5355Z" fill="white"/>
<path d="M432.243 69.5355L433.657 68.1213L432.95 67.4142L431.536 68.8284L430.121 67.4142L429.414 68.1213L430.829 69.5355L429.414 70.9497L430.121 71.6569L431.536 70.2426L432.95 71.6569L433.657 70.9497L432.243 69.5355Z" fill="white"/>
<path d="M409.243 47.5355L410.657 46.1213L409.95 45.4142L408.536 46.8284L407.121 45.4142L406.414 46.1213L407.829 47.5355L406.414 48.9497L407.121 49.6569L408.536 48.2426L409.95 49.6569L410.657 48.9497L409.243 47.5355Z" fill="white"/>
<path d="M432.243 47.5355L433.657 46.1213L432.95 45.4142L431.536 46.8284L430.121 45.4142L429.414 46.1213L430.829 47.5355L429.414 48.9497L430.121 49.6569L431.536 48.2426L432.95 49.6569L433.657 48.9497L432.243 47.5355Z" fill="white"/>
<path d="M454.243 69.5355L455.657 68.1213L454.95 67.4142L453.536 68.8284L452.121 67.4142L451.414 68.1213L452.829 69.5355L451.414 70.9497L452.121 71.6569L453.536 70.2426L454.95 71.6569L455.657 70.9497L454.243 69.5355Z" fill="white"/>
<path d="M477.243 69.5355L478.657 68.1213L477.95 67.4142L476.536 68.8284L475.121 67.4142L474.414 68.1213L475.829 69.5355L474.414 70.9497L475.121 71.6569L476.536 70.2426L477.95 71.6569L478.657 70.9497L477.243 69.5355Z" fill="white"/>
<path d="M454.243 47.5355L455.657 46.1213L454.95 45.4142L453.536 46.8284L452.121 45.4142L451.414 46.1213L452.829 47.5355L451.414 48.9497L452.121 49.6569L453.536 48.2426L454.95 49.6569L455.657 48.9497L454.243 47.5355Z" fill="white"/>
<path d="M477.243 47.5355L478.657 46.1213L477.95 45.4142L476.536 46.8284L475.121 45.4142L474.414 46.1213L475.829 47.5355L474.414 48.9497L475.121 49.6569L476.536 48.2426L477.95 49.6569L478.657 48.9497L477.243 47.5355Z" fill="white"/>
<path d="M409.243 25.5355L410.657 24.1213L409.95 23.4142L408.536 24.8284L407.121 23.4142L406.414 24.1213L407.829 25.5355L406.414 26.9497L407.121 27.6569L408.536 26.2426L409.95 27.6569L410.657 26.9497L409.243 25.5355Z" fill="white"/>
<path d="M432.243 25.5355L433.657 24.1213L432.95 23.4142L431.536 24.8284L430.121 23.4142L429.414 24.1213L430.829 25.5355L429.414 26.9497L430.121 27.6569L431.536 26.2426L432.95 27.6569L433.657 26.9497L432.243 25.5355Z" fill="white"/>
<path d="M409.243 3.53553L410.657 2.12132L409.95 1.41421L408.536 2.82843L407.121 1.41421L406.414 2.12132L407.829 3.53553L406.414 4.94975L407.121 5.65685L408.536 4.24264L409.95 5.65685L410.657 4.94975L409.243 3.53553Z" fill="white"/>
<path d="M432.243 3.53553L433.657 2.12132L432.95 1.41421L431.536 2.82843L430.121 1.41421L429.414 2.12132L430.829 3.53553L429.414 4.94975L430.121 5.65685L431.536 4.24264L432.95 5.65685L433.657 4.94975L432.243 3.53553Z" fill="white"/>
<path d="M454.243 25.5355L455.657 24.1213L454.95 23.4142L453.536 24.8284L452.121 23.4142L451.414 24.1213L452.829 25.5355L451.414 26.9497L452.121 27.6569L453.536 26.2426L454.95 27.6569L455.657 26.9497L454.243 25.5355Z" fill="white"/>
<path d="M477.243 25.5355L478.657 24.1213L477.95 23.4142L476.536 24.8284L475.121 23.4142L474.414 24.1213L475.829 25.5355L474.414 26.9497L475.121 27.6569L476.536 26.2426L477.95 27.6569L478.657 26.9497L477.243 25.5355Z" fill="white"/>
<path d="M454.243 3.53553L455.657 2.12132L454.95 1.41421L453.536 2.82843L452.121 1.41421L451.414 2.12132L452.829 3.53553L451.414 4.94975L452.121 5.65685L453.536 4.24264L454.95 5.65685L455.657 4.94975L454.243 3.53553Z" fill="white"/>
<path d="M477.243 3.53553L478.657 2.12132L477.95 1.41421L476.536 2.82843L475.121 1.41421L474.414 2.12132L475.829 3.53553L474.414 4.94975L475.121 5.65685L476.536 4.24264L477.95 5.65685L478.657 4.94975L477.243 3.53553Z" fill="white"/>
<path d="M319.243 157.536L320.657 156.121L319.95 155.414L318.536 156.828L317.121 155.414L316.414 156.121L317.829 157.536L316.414 158.95L317.121 159.657L318.536 158.243L319.95 159.657L320.657 158.95L319.243 157.536Z" fill="white"/>
<path d="M342.243 157.536L343.657 156.121L342.95 155.414L341.536 156.828L340.121 155.414L339.414 156.121L340.829 157.536L339.414 158.95L340.121 159.657L341.536 158.243L342.95 159.657L343.657 158.95L342.243 157.536Z" fill="white"/>
<path d="M319.243 135.536L320.657 134.121L319.95 133.414L318.536 134.828L317.121 133.414L316.414 134.121L317.829 135.536L316.414 136.95L317.121 137.657L318.536 136.243L319.95 137.657L320.657 136.95L319.243 135.536Z" fill="white"/>
<path d="M342.243 135.536L343.657 134.121L342.95 133.414L341.536 134.828L340.121 133.414L339.414 134.121L340.829 135.536L339.414 136.95L340.121 137.657L341.536 136.243L342.95 137.657L343.657 136.95L342.243 135.536Z" fill="white"/>
<path d="M364.243 157.536L365.657 156.121L364.95 155.414L363.536 156.828L362.121 155.414L361.414 156.121L362.829 157.536L361.414 158.95L362.121 159.657L363.536 158.243L364.95 159.657L365.657 158.95L364.243 157.536Z" fill="white"/>
<path d="M387.243 157.536L388.657 156.121L387.95 155.414L386.536 156.828L385.121 155.414L384.414 156.121L385.829 157.536L384.414 158.95L385.121 159.657L386.536 158.243L387.95 159.657L388.657 158.95L387.243 157.536Z" fill="white"/>
<path d="M364.243 135.536L365.657 134.121L364.95 133.414L363.536 134.828L362.121 133.414L361.414 134.121L362.829 135.536L361.414 136.95L362.121 137.657L363.536 136.243L364.95 137.657L365.657 136.95L364.243 135.536Z" fill="white"/>
<path d="M387.243 135.536L388.657 134.121L387.95 133.414L386.536 134.828L385.121 133.414L384.414 134.121L385.829 135.536L384.414 136.95L385.121 137.657L386.536 136.243L387.95 137.657L388.657 136.95L387.243 135.536Z" fill="white"/>
<path d="M319.243 113.536L320.657 112.121L319.95 111.414L318.536 112.828L317.121 111.414L316.414 112.121L317.829 113.536L316.414 114.95L317.121 115.657L318.536 114.243L319.95 115.657L320.657 114.95L319.243 113.536Z" fill="white"/>
<path d="M342.243 113.536L343.657 112.121L342.95 111.414L341.536 112.828L340.121 111.414L339.414 112.121L340.829 113.536L339.414 114.95L340.121 115.657L341.536 114.243L342.95 115.657L343.657 114.95L342.243 113.536Z" fill="white"/>
<path d="M319.243 91.5355L320.657 90.1213L319.95 89.4142L318.536 90.8284L317.121 89.4142L316.414 90.1213L317.829 91.5355L316.414 92.9497L317.121 93.6569L318.536 92.2426L319.95 93.6569L320.657 92.9497L319.243 91.5355Z" fill="white"/>
<path d="M342.243 91.5355L343.657 90.1213L342.95 89.4142L341.536 90.8284L340.121 89.4142L339.414 90.1213L340.829 91.5355L339.414 92.9497L340.121 93.6569L341.536 92.2426L342.95 93.6569L343.657 92.9497L342.243 91.5355Z" fill="white"/>
<path d="M364.243 113.536L365.657 112.121L364.95 111.414L363.536 112.828L362.121 111.414L361.414 112.121L362.829 113.536L361.414 114.95L362.121 115.657L363.536 114.243L364.95 115.657L365.657 114.95L364.243 113.536Z" fill="white"/>
<path d="M387.243 113.536L388.657 112.121L387.95 111.414L386.536 112.828L385.121 111.414L384.414 112.121L385.829 113.536L384.414 114.95L385.121 115.657L386.536 114.243L387.95 115.657L388.657 114.95L387.243 113.536Z" fill="white"/>
<path d="M364.243 91.5355L365.657 90.1213L364.95 89.4142L363.536 90.8284L362.121 89.4142L361.414 90.1213L362.829 91.5355L361.414 92.9497L362.121 93.6569L363.536 92.2426L364.95 93.6569L365.657 92.9497L364.243 91.5355Z" fill="white"/>
<path d="M387.243 91.5355L388.657 90.1213L387.95 89.4142L386.536 90.8284L385.121 89.4142L384.414 90.1213L385.829 91.5355L384.414 92.9497L385.121 93.6569L386.536 92.2426L387.95 93.6569L388.657 92.9497L387.243 91.5355Z" fill="white"/>
<path d="M409.243 157.536L410.657 156.121L409.95 155.414L408.536 156.828L407.121 155.414L406.414 156.121L407.829 157.536L406.414 158.95L407.121 159.657L408.536 158.243L409.95 159.657L410.657 158.95L409.243 157.536Z" fill="white"/>
<path d="M432.243 157.536L433.657 156.121L432.95 155.414L431.536 156.828L430.121 155.414L429.414 156.121L430.829 157.536L429.414 158.95L430.121 159.657L431.536 158.243L432.95 159.657L433.657 158.95L432.243 157.536Z" fill="white"/>
<path d="M409.243 135.536L410.657 134.121L409.95 133.414L408.536 134.828L407.121 133.414L406.414 134.121L407.829 135.536L406.414 136.95L407.121 137.657L408.536 136.243L409.95 137.657L410.657 136.95L409.243 135.536Z" fill="white"/>
<path d="M432.243 135.536L433.657 134.121L432.95 133.414L431.536 134.828L430.121 133.414L429.414 134.121L430.829 135.536L429.414 136.95L430.121 137.657L431.536 136.243L432.95 137.657L433.657 136.95L432.243 135.536Z" fill="white"/>
<path d="M454.243 157.536L455.657 156.121L454.95 155.414L453.536 156.828L452.121 155.414L451.414 156.121L452.829 157.536L451.414 158.95L452.121 159.657L453.536 158.243L454.95 159.657L455.657 158.95L454.243 157.536Z" fill="white"/>
<path d="M477.243 157.536L478.657 156.121L477.95 155.414L476.536 156.828L475.121 155.414L474.414 156.121L475.829 157.536L474.414 158.95L475.121 159.657L476.536 158.243L477.95 159.657L478.657 158.95L477.243 157.536Z" fill="white"/>
<path d="M454.243 135.536L455.657 134.121L454.95 133.414L453.536 134.828L452.121 133.414L451.414 134.121L452.829 135.536L451.414 136.95L452.121 137.657L453.536 136.243L454.95 137.657L455.657 136.95L454.243 135.536Z" fill="white"/>
<path d="M477.243 135.536L478.657 134.121L477.95 133.414L476.536 134.828L475.121 133.414L474.414 134.121L475.829 135.536L474.414 136.95L475.121 137.657L476.536 136.243L477.95 137.657L478.657 136.95L477.243 135.536Z" fill="white"/>
<path d="M409.243 113.536L410.657 112.121L409.95 111.414L408.536 112.828L407.121 111.414L406.414 112.121L407.829 113.536L406.414 114.95L407.121 115.657L408.536 114.243L409.95 115.657L410.657 114.95L409.243 113.536Z" fill="white"/>
<path d="M432.243 113.536L433.657 112.121L432.95 111.414L431.536 112.828L430.121 111.414L429.414 112.121L430.829 113.536L429.414 114.95L430.121 115.657L431.536 114.243L432.95 115.657L433.657 114.95L432.243 113.536Z" fill="white"/>
<path d="M409.243 91.5355L410.657 90.1213L409.95 89.4142L408.536 90.8284L407.121 89.4142L406.414 90.1213L407.829 91.5355L406.414 92.9497L407.121 93.6569L408.536 92.2426L409.95 93.6569L410.657 92.9497L409.243 91.5355Z" fill="white"/>
<path d="M432.243 91.5355L433.657 90.1213L432.95 89.4142L431.536 90.8284L430.121 89.4142L429.414 90.1213L430.829 91.5355L429.414 92.9497L430.121 93.6569L431.536 92.2426L432.95 93.6569L433.657 92.9497L432.243 91.5355Z" fill="white"/>
<path d="M454.243 113.536L455.657 112.121L454.95 111.414L453.536 112.828L452.121 111.414L451.414 112.121L452.829 113.536L451.414 114.95L452.121 115.657L453.536 114.243L454.95 115.657L455.657 114.95L454.243 113.536Z" fill="white"/>
<path d="M477.243 113.536L478.657 112.121L477.95 111.414L476.536 112.828L475.121 111.414L474.414 112.121L475.829 113.536L474.414 114.95L475.121 115.657L476.536 114.243L477.95 115.657L478.657 114.95L477.243 113.536Z" fill="white"/>
<path d="M454.243 91.5355L455.657 90.1213L454.95 89.4142L453.536 90.8284L452.121 89.4142L451.414 90.1213L452.829 91.5355L451.414 92.9497L452.121 93.6569L453.536 92.2426L454.95 93.6569L455.657 92.9497L454.243 91.5355Z" fill="white"/>
<path d="M477.243 91.5355L478.657 90.1213L477.95 89.4142L476.536 90.8284L475.121 89.4142L474.414 90.1213L475.829 91.5355L474.414 92.9497L475.121 93.6569L476.536 92.2426L477.95 93.6569L478.657 92.9497L477.243 91.5355Z" fill="white"/>
<path d="M499.243 69.5355L500.657 68.1213L499.95 67.4142L498.536 68.8284L497.121 67.4142L496.414 68.1213L497.829 69.5355L496.414 70.9497L497.121 71.6569L498.536 70.2426L499.95 71.6569L500.657 70.9497L499.243 69.5355Z" fill="white"/>
<path d="M499.243 47.5355L500.657 46.1213L499.95 45.4142L498.536 46.8284L497.121 45.4142L496.414 46.1213L497.829 47.5355L496.414 48.9497L497.121 49.6569L498.536 48.2426L499.95 49.6569L500.657 48.9497L499.243 47.5355Z" fill="white"/>
<path d="M521.243 69.5355L522.657 68.1213L521.95 67.4142L520.536 68.8284L519.121 67.4142L518.414 68.1213L519.829 69.5355L518.414 70.9497L519.121 71.6569L520.536 70.2426L521.95 71.6569L522.657 70.9497L521.243 69.5355Z" fill="white"/>
<path d="M544.243 69.5355L545.657 68.1213L544.95 67.4142L543.536 68.8284L542.121 67.4142L541.414 68.1213L542.829 69.5355L541.414 70.9497L542.121 71.6569L543.536 70.2426L544.95 71.6569L545.657 70.9497L544.243 69.5355Z" fill="white"/>
<path d="M521.243 47.5355L522.657 46.1213L521.95 45.4142L520.536 46.8284L519.121 45.4142L518.414 46.1213L519.829 47.5355L518.414 48.9497L519.121 49.6569L520.536 48.2426L521.95 49.6569L522.657 48.9497L521.243 47.5355Z" fill="white"/>
<path d="M544.243 47.5355L545.657 46.1213L544.95 45.4142L543.536 46.8284L542.121 45.4142L541.414 46.1213L542.829 47.5355L541.414 48.9497L542.121 49.6569L543.536 48.2426L544.95 49.6569L545.657 48.9497L544.243 47.5355Z" fill="white"/>
<path d="M499.243 25.5355L500.657 24.1213L499.95 23.4142L498.536 24.8284L497.121 23.4142L496.414 24.1213L497.829 25.5355L496.414 26.9497L497.121 27.6569L498.536 26.2426L499.95 27.6569L500.657 26.9497L499.243 25.5355Z" fill="white"/>
<path d="M499.243 3.53553L500.657 2.12132L499.95 1.41421L498.536 2.82843L497.121 1.41421L496.414 2.12132L497.829 3.53553L496.414 4.94975L497.121 5.65685L498.536 4.24264L499.95 5.65685L500.657 4.94975L499.243 3.53553Z" fill="white"/>
<path d="M521.243 25.5355L522.657 24.1213L521.95 23.4142L520.536 24.8284L519.121 23.4142L518.414 24.1213L519.829 25.5355L518.414 26.9497L519.121 27.6569L520.536 26.2426L521.95 27.6569L522.657 26.9497L521.243 25.5355Z" fill="white"/>
<path d="M544.243 25.5355L545.657 24.1213L544.95 23.4142L543.536 24.8284L542.121 23.4142L541.414 24.1213L542.829 25.5355L541.414 26.9497L542.121 27.6569L543.536 26.2426L544.95 27.6569L545.657 26.9497L544.243 25.5355Z" fill="white"/>
<path d="M521.243 3.53553L522.657 2.12132L521.95 1.41421L520.536 2.82843L519.121 1.41421L518.414 2.12132L519.829 3.53553L518.414 4.94975L519.121 5.65685L520.536 4.24264L521.95 5.65685L522.657 4.94975L521.243 3.53553Z" fill="white"/>
<path d="M544.243 3.53553L545.657 2.12132L544.95 1.41421L543.536 2.82843L542.121 1.41421L541.414 2.12132L542.829 3.53553L541.414 4.94975L542.121 5.65685L543.536 4.24264L544.95 5.65685L545.657 4.94975L544.243 3.53553Z" fill="white"/>
<path d="M499.243 157.536L500.657 156.121L499.95 155.414L498.536 156.828L497.121 155.414L496.414 156.121L497.829 157.536L496.414 158.95L497.121 159.657L498.536 158.243L499.95 159.657L500.657 158.95L499.243 157.536Z" fill="white"/>
<path d="M499.243 135.536L500.657 134.121L499.95 133.414L498.536 134.828L497.121 133.414L496.414 134.121L497.829 135.536L496.414 136.95L497.121 137.657L498.536 136.243L499.95 137.657L500.657 136.95L499.243 135.536Z" fill="white"/>
<path d="M521.243 157.536L522.657 156.121L521.95 155.414L520.536 156.828L519.121 155.414L518.414 156.121L519.829 157.536L518.414 158.95L519.121 159.657L520.536 158.243L521.95 159.657L522.657 158.95L521.243 157.536Z" fill="white"/>
<path d="M544.243 157.536L545.657 156.121L544.95 155.414L543.536 156.828L542.121 155.414L541.414 156.121L542.829 157.536L541.414 158.95L542.121 159.657L543.536 158.243L544.95 159.657L545.657 158.95L544.243 157.536Z" fill="white"/>
<path d="M521.243 135.536L522.657 134.121L521.95 133.414L520.536 134.828L519.121 133.414L518.414 134.121L519.829 135.536L518.414 136.95L519.121 137.657L520.536 136.243L521.95 137.657L522.657 136.95L521.243 135.536Z" fill="white"/>
<path d="M544.243 135.536L545.657 134.121L544.95 133.414L543.536 134.828L542.121 133.414L541.414 134.121L542.829 135.536L541.414 136.95L542.121 137.657L543.536 136.243L544.95 137.657L545.657 136.95L544.243 135.536Z" fill="white"/>
<path d="M499.243 113.536L500.657 112.121L499.95 111.414L498.536 112.828L497.121 111.414L496.414 112.121L497.829 113.536L496.414 114.95L497.121 115.657L498.536 114.243L499.95 115.657L500.657 114.95L499.243 113.536Z" fill="white"/>
<path d="M499.243 91.5355L500.657 90.1213L499.95 89.4142L498.536 90.8284L497.121 89.4142L496.414 90.1213L497.829 91.5355L496.414 92.9497L497.121 93.6569L498.536 92.2426L499.95 93.6569L500.657 92.9497L499.243 91.5355Z" fill="white"/>
<path d="M521.243 113.536L522.657 112.121L521.95 111.414L520.536 112.828L519.121 111.414L518.414 112.121L519.829 113.536L518.414 114.95L519.121 115.657L520.536 114.243L521.95 115.657L522.657 114.95L521.243 113.536Z" fill="white"/>
<path d="M544.243 113.536L545.657 112.121L544.95 111.414L543.536 112.828L542.121 111.414L541.414 112.121L542.829 113.536L541.414 114.95L542.121 115.657L543.536 114.243L544.95 115.657L545.657 114.95L544.243 113.536Z" fill="white"/>
<path d="M521.243 91.5355L522.657 90.1213L521.95 89.4142L520.536 90.8284L519.121 89.4142L518.414 90.1213L519.829 91.5355L518.414 92.9497L519.121 93.6569L520.536 92.2426L521.95 93.6569L522.657 92.9497L521.243 91.5355Z" fill="white"/>
<path d="M544.243 91.5355L545.657 90.1213L544.95 89.4142L543.536 90.8284L542.121 89.4142L541.414 90.1213L542.829 91.5355L541.414 92.9497L542.121 93.6569L543.536 92.2426L544.95 93.6569L545.657 92.9497L544.243 91.5355Z" fill="white"/>
<path d="M566.243 69.5355L567.657 68.1213L566.95 67.4142L565.536 68.8284L564.121 67.4142L563.414 68.1213L564.829 69.5355L563.414 70.9497L564.121 71.6569L565.536 70.2426L566.95 71.6569L567.657 70.9497L566.243 69.5355Z" fill="white"/>
<path d="M566.243 47.5355L567.657 46.1213L566.95 45.4142L565.536 46.8284L564.121 45.4142L563.414 46.1213L564.829 47.5355L563.414 48.9497L564.121 49.6569L565.536 48.2426L566.95 49.6569L567.657 48.9497L566.243 47.5355Z" fill="white"/>
<path d="M566.243 25.5355L567.657 24.1213L566.95 23.4142L565.536 24.8284L564.121 23.4142L563.414 24.1213L564.829 25.5355L563.414 26.9497L564.121 27.6569L565.536 26.2426L566.95 27.6569L567.657 26.9497L566.243 25.5355Z" fill="white"/>
<path d="M566.243 3.53553L567.657 2.12132L566.95 1.41421L565.536 2.82843L564.121 1.41421L563.414 2.12132L564.829 3.53553L563.414 4.94975L564.121 5.65685L565.536 4.24264L566.95 5.65685L567.657 4.94975L566.243 3.53553Z" fill="white"/>
<path d="M566.243 157.536L567.657 156.121L566.95 155.414L565.536 156.828L564.121 155.414L563.414 156.121L564.829 157.536L563.414 158.95L564.121 159.657L565.536 158.243L566.95 159.657L567.657 158.95L566.243 157.536Z" fill="white"/>
<path d="M566.243 135.536L567.657 134.121L566.95 133.414L565.536 134.828L564.121 133.414L563.414 134.121L564.829 135.536L563.414 136.95L564.121 137.657L565.536 136.243L566.95 137.657L567.657 136.95L566.243 135.536Z" fill="white"/>
<path d="M566.243 113.536L567.657 112.121L566.95 111.414L565.536 112.828L564.121 111.414L563.414 112.121L564.829 113.536L563.414 114.95L564.121 115.657L565.536 114.243L566.95 115.657L567.657 114.95L566.243 113.536Z" fill="white"/>
<path d="M566.243 91.5355L567.657 90.1213L566.95 89.4142L565.536 90.8284L564.121 89.4142L563.414 90.1213L564.829 91.5355L563.414 92.9497L564.121 93.6569L565.536 92.2426L566.95 93.6569L567.657 92.9497L566.243 91.5355Z" fill="white"/>
<path d="M4.24275 69.5355L5.65696 68.1213L4.94986 67.4142L3.53564 68.8284L2.12143 67.4142L1.41432 68.1213L2.82854 69.5355L1.41432 70.9497L2.12143 71.6569L3.53564 70.2426L4.94986 71.6569L5.65696 70.9497L4.24275 69.5355Z" fill="white"/>
<path d="M27.2428 69.5355L28.657 68.1213L27.9499 67.4142L26.5356 68.8284L25.1214 67.4142L24.4143 68.1213L25.8285 69.5355L24.4143 70.9497L25.1214 71.6569L26.5356 70.2426L27.9499 71.6569L28.657 70.9497L27.2428 69.5355Z" fill="white"/>
<path d="M4.24275 47.5355L5.65696 46.1213L4.94986 45.4142L3.53564 46.8284L2.12143 45.4142L1.41432 46.1213L2.82854 47.5355L1.41432 48.9497L2.12143 49.6569L3.53564 48.2426L4.94986 49.6569L5.65696 48.9497L4.24275 47.5355Z" fill="white"/>
<path d="M27.2428 47.5355L28.657 46.1213L27.9499 45.4142L26.5356 46.8284L25.1214 45.4142L24.4143 46.1213L25.8285 47.5355L24.4143 48.9497L25.1214 49.6569L26.5356 48.2426L27.9499 49.6569L28.657 48.9497L27.2428 47.5355Z" fill="white"/>
<path d="M4.24275 25.5355L5.65696 24.1213L4.94986 23.4142L3.53564 24.8284L2.12143 23.4142L1.41432 24.1213L2.82854 25.5355L1.41432 26.9497L2.12143 27.6569L3.53564 26.2426L4.94986 27.6569L5.65696 26.9497L4.24275 25.5355Z" fill="white"/>
<path d="M27.2428 25.5355L28.657 24.1213L27.9499 23.4142L26.5356 24.8284L25.1214 23.4142L24.4143 24.1213L25.8285 25.5355L24.4143 26.9497L25.1214 27.6569L26.5356 26.2426L27.9499 27.6569L28.657 26.9497L27.2428 25.5355Z" fill="white"/>
<path d="M4.24275 3.53553L5.65696 2.12132L4.94986 1.41421L3.53564 2.82843L2.12143 1.41421L1.41432 2.12132L2.82854 3.53553L1.41432 4.94975L2.12143 5.65685L3.53564 4.24264L4.94986 5.65685L5.65696 4.94975L4.24275 3.53553Z" fill="white"/>
<path d="M27.2428 3.53553L28.657 2.12132L27.9499 1.41421L26.5356 2.82843L25.1214 1.41421L24.4143 2.12132L25.8285 3.53553L24.4143 4.94975L25.1214 5.65685L26.5356 4.24264L27.9499 5.65685L28.657 4.94975L27.2428 3.53553Z" fill="white"/>
<path d="M49.2428 69.5355L50.657 68.1213L49.9499 67.4142L48.5356 68.8284L47.1214 67.4142L46.4143 68.1213L47.8285 69.5355L46.4143 70.9497L47.1214 71.6569L48.5356 70.2426L49.9499 71.6569L50.657 70.9497L49.2428 69.5355Z" fill="white"/>
<path d="M72.2428 69.5355L73.657 68.1213L72.9499 67.4142L71.5356 68.8284L70.1214 67.4142L69.4143 68.1213L70.8285 69.5355L69.4143 70.9497L70.1214 71.6569L71.5356 70.2426L72.9499 71.6569L73.657 70.9497L72.2428 69.5355Z" fill="white"/>
<path d="M49.2428 47.5355L50.657 46.1213L49.9499 45.4142L48.5356 46.8284L47.1214 45.4142L46.4143 46.1213L47.8285 47.5355L46.4143 48.9497L47.1214 49.6569L48.5356 48.2426L49.9499 49.6569L50.657 48.9497L49.2428 47.5355Z" fill="white"/>
<path d="M72.2428 47.5355L73.657 46.1213L72.9499 45.4142L71.5356 46.8284L70.1214 45.4142L69.4143 46.1213L70.8285 47.5355L69.4143 48.9497L70.1214 49.6569L71.5356 48.2426L72.9499 49.6569L73.657 48.9497L72.2428 47.5355Z" fill="white"/>
<path d="M94.2428 69.5355L95.657 68.1213L94.9499 67.4142L93.5356 68.8284L92.1214 67.4142L91.4143 68.1213L92.8285 69.5355L91.4143 70.9497L92.1214 71.6569L93.5356 70.2426L94.9499 71.6569L95.657 70.9497L94.2428 69.5355Z" fill="white"/>
<path d="M117.243 69.5355L118.657 68.1213L117.95 67.4142L116.536 68.8284L115.121 67.4142L114.414 68.1213L115.829 69.5355L114.414 70.9497L115.121 71.6569L116.536 70.2426L117.95 71.6569L118.657 70.9497L117.243 69.5355Z" fill="white"/>
<path d="M94.2428 47.5355L95.657 46.1213L94.9499 45.4142L93.5356 46.8284L92.1214 45.4142L91.4143 46.1213L92.8285 47.5355L91.4143 48.9497L92.1214 49.6569L93.5356 48.2426L94.9499 49.6569L95.657 48.9497L94.2428 47.5355Z" fill="white"/>
<path d="M117.243 47.5355L118.657 46.1213L117.95 45.4142L116.536 46.8284L115.121 45.4142L114.414 46.1213L115.829 47.5355L114.414 48.9497L115.121 49.6569L116.536 48.2426L117.95 49.6569L118.657 48.9497L117.243 47.5355Z" fill="white"/>
<path d="M49.2428 25.5355L50.657 24.1213L49.9499 23.4142L48.5356 24.8284L47.1214 23.4142L46.4143 24.1213L47.8285 25.5355L46.4143 26.9497L47.1214 27.6569L48.5356 26.2426L49.9499 27.6569L50.657 26.9497L49.2428 25.5355Z" fill="white"/>
<path d="M72.2428 25.5355L73.657 24.1213L72.9499 23.4142L71.5356 24.8284L70.1214 23.4142L69.4143 24.1213L70.8285 25.5355L69.4143 26.9497L70.1214 27.6569L71.5356 26.2426L72.9499 27.6569L73.657 26.9497L72.2428 25.5355Z" fill="white"/>
<path d="M49.2428 3.53553L50.657 2.12132L49.9499 1.41421L48.5356 2.82843L47.1214 1.41421L46.4143 2.12132L47.8285 3.53553L46.4143 4.94975L47.1214 5.65685L48.5356 4.24264L49.9499 5.65685L50.657 4.94975L49.2428 3.53553Z" fill="white"/>
<path d="M72.2428 3.53553L73.657 2.12132L72.9499 1.41421L71.5356 2.82843L70.1214 1.41421L69.4143 2.12132L70.8285 3.53553L69.4143 4.94975L70.1214 5.65685L71.5356 4.24264L72.9499 5.65685L73.657 4.94975L72.2428 3.53553Z" fill="white"/>
<path d="M94.2428 25.5355L95.657 24.1213L94.9499 23.4142L93.5356 24.8284L92.1214 23.4142L91.4143 24.1213L92.8285 25.5355L91.4143 26.9497L92.1214 27.6569L93.5356 26.2426L94.9499 27.6569L95.657 26.9497L94.2428 25.5355Z" fill="white"/>
<path d="M117.243 25.5355L118.657 24.1213L117.95 23.4142L116.536 24.8284L115.121 23.4142L114.414 24.1213L115.829 25.5355L114.414 26.9497L115.121 27.6569L116.536 26.2426L117.95 27.6569L118.657 26.9497L117.243 25.5355Z" fill="white"/>
<path d="M94.2428 3.53553L95.657 2.12132L94.9499 1.41421L93.5356 2.82843L92.1214 1.41421L91.4143 2.12132L92.8285 3.53553L91.4143 4.94975L92.1214 5.65685L93.5356 4.24264L94.9499 5.65685L95.657 4.94975L94.2428 3.53553Z" fill="white"/>
<path d="M117.243 3.53553L118.657 2.12132L117.95 1.41421L116.536 2.82843L115.121 1.41421L114.414 2.12132L115.829 3.53553L114.414 4.94975L115.121 5.65685L116.536 4.24264L117.95 5.65685L118.657 4.94975L117.243 3.53553Z" fill="white"/>
<path d="M4.24275 157.536L5.65696 156.121L4.94986 155.414L3.53564 156.828L2.12143 155.414L1.41432 156.121L2.82854 157.536L1.41432 158.95L2.12143 159.657L3.53564 158.243L4.94986 159.657L5.65696 158.95L4.24275 157.536Z" fill="white"/>
<path d="M27.2428 157.536L28.657 156.121L27.9499 155.414L26.5356 156.828L25.1214 155.414L24.4143 156.121L25.8285 157.536L24.4143 158.95L25.1214 159.657L26.5356 158.243L27.9499 159.657L28.657 158.95L27.2428 157.536Z" fill="white"/>
<path d="M4.24275 135.536L5.65696 134.121L4.94986 133.414L3.53564 134.828L2.12143 133.414L1.41432 134.121L2.82854 135.536L1.41432 136.95L2.12143 137.657L3.53564 136.243L4.94986 137.657L5.65696 136.95L4.24275 135.536Z" fill="white"/>
<path d="M27.2428 135.536L28.657 134.121L27.9499 133.414L26.5356 134.828L25.1214 133.414L24.4143 134.121L25.8285 135.536L24.4143 136.95L25.1214 137.657L26.5356 136.243L27.9499 137.657L28.657 136.95L27.2428 135.536Z" fill="white"/>
<path d="M4.24275 113.536L5.65696 112.121L4.94986 111.414L3.53564 112.828L2.12143 111.414L1.41432 112.121L2.82854 113.536L1.41432 114.95L2.12143 115.657L3.53564 114.243L4.94986 115.657L5.65696 114.95L4.24275 113.536Z" fill="white"/>
<path d="M27.2428 113.536L28.657 112.121L27.9499 111.414L26.5356 112.828L25.1214 111.414L24.4143 112.121L25.8285 113.536L24.4143 114.95L25.1214 115.657L26.5356 114.243L27.9499 115.657L28.657 114.95L27.2428 113.536Z" fill="white"/>
<path d="M4.24275 91.5355L5.65696 90.1213L4.94986 89.4142L3.53564 90.8284L2.12143 89.4142L1.41432 90.1213L2.82854 91.5355L1.41432 92.9497L2.12143 93.6569L3.53564 92.2426L4.94986 93.6569L5.65696 92.9497L4.24275 91.5355Z" fill="white"/>
<path d="M27.2428 91.5355L28.657 90.1213L27.9499 89.4142L26.5356 90.8284L25.1214 89.4142L24.4143 90.1213L25.8285 91.5355L24.4143 92.9497L25.1214 93.6569L26.5356 92.2426L27.9499 93.6569L28.657 92.9497L27.2428 91.5355Z" fill="white"/>
<path d="M49.2428 157.536L50.657 156.121L49.9499 155.414L48.5356 156.828L47.1214 155.414L46.4143 156.121L47.8285 157.536L46.4143 158.95L47.1214 159.657L48.5356 158.243L49.9499 159.657L50.657 158.95L49.2428 157.536Z" fill="white"/>
<path d="M72.2428 157.536L73.657 156.121L72.9499 155.414L71.5356 156.828L70.1214 155.414L69.4143 156.121L70.8285 157.536L69.4143 158.95L70.1214 159.657L71.5356 158.243L72.9499 159.657L73.657 158.95L72.2428 157.536Z" fill="white"/>
<path d="M49.2428 135.536L50.657 134.121L49.9499 133.414L48.5356 134.828L47.1214 133.414L46.4143 134.121L47.8285 135.536L46.4143 136.95L47.1214 137.657L48.5356 136.243L49.9499 137.657L50.657 136.95L49.2428 135.536Z" fill="white"/>
<path d="M72.2428 135.536L73.657 134.121L72.9499 133.414L71.5356 134.828L70.1214 133.414L69.4143 134.121L70.8285 135.536L69.4143 136.95L70.1214 137.657L71.5356 136.243L72.9499 137.657L73.657 136.95L72.2428 135.536Z" fill="white"/>
<path d="M94.2428 157.536L95.657 156.121L94.9499 155.414L93.5356 156.828L92.1214 155.414L91.4143 156.121L92.8285 157.536L91.4143 158.95L92.1214 159.657L93.5356 158.243L94.9499 159.657L95.657 158.95L94.2428 157.536Z" fill="white"/>
<path d="M117.243 157.536L118.657 156.121L117.95 155.414L116.536 156.828L115.121 155.414L114.414 156.121L115.829 157.536L114.414 158.95L115.121 159.657L116.536 158.243L117.95 159.657L118.657 158.95L117.243 157.536Z" fill="white"/>
<path d="M94.2428 135.536L95.657 134.121L94.9499 133.414L93.5356 134.828L92.1214 133.414L91.4143 134.121L92.8285 135.536L91.4143 136.95L92.1214 137.657L93.5356 136.243L94.9499 137.657L95.657 136.95L94.2428 135.536Z" fill="white"/>
<path d="M117.243 135.536L118.657 134.121L117.95 133.414L116.536 134.828L115.121 133.414L114.414 134.121L115.829 135.536L114.414 136.95L115.121 137.657L116.536 136.243L117.95 137.657L118.657 136.95L117.243 135.536Z" fill="white"/>
<path d="M139.243 201.536L140.657 200.121L139.95 199.414L138.536 200.828L137.121 199.414L136.414 200.121L137.829 201.536L136.414 202.95L137.121 203.657L138.536 202.243L139.95 203.657L140.657 202.95L139.243 201.536Z" fill="white"/>
<path d="M162.243 201.536L163.657 200.121L162.95 199.414L161.536 200.828L160.121 199.414L159.414 200.121L160.829 201.536L159.414 202.95L160.121 203.657L161.536 202.243L162.95 203.657L163.657 202.95L162.243 201.536Z" fill="white"/>
<path d="M139.243 179.536L140.657 178.121L139.95 177.414L138.536 178.828L137.121 177.414L136.414 178.121L137.829 179.536L136.414 180.95L137.121 181.657L138.536 180.243L139.95 181.657L140.657 180.95L139.243 179.536Z" fill="white"/>
<path d="M162.243 179.536L163.657 178.121L162.95 177.414L161.536 178.828L160.121 177.414L159.414 178.121L160.829 179.536L159.414 180.95L160.121 181.657L161.536 180.243L162.95 181.657L163.657 180.95L162.243 179.536Z" fill="white"/>
<path d="M184.243 201.536L185.657 200.121L184.95 199.414L183.536 200.828L182.121 199.414L181.414 200.121L182.829 201.536L181.414 202.95L182.121 203.657L183.536 202.243L184.95 203.657L185.657 202.95L184.243 201.536Z" fill="white"/>
<path d="M207.243 201.536L208.657 200.121L207.95 199.414L206.536 200.828L205.121 199.414L204.414 200.121L205.829 201.536L204.414 202.95L205.121 203.657L206.536 202.243L207.95 203.657L208.657 202.95L207.243 201.536Z" fill="white"/>
<path d="M184.243 179.536L185.657 178.121L184.95 177.414L183.536 178.828L182.121 177.414L181.414 178.121L182.829 179.536L181.414 180.95L182.121 181.657L183.536 180.243L184.95 181.657L185.657 180.95L184.243 179.536Z" fill="white"/>
<path d="M207.243 179.536L208.657 178.121L207.95 177.414L206.536 178.828L205.121 177.414L204.414 178.121L205.829 179.536L204.414 180.95L205.121 181.657L206.536 180.243L207.95 181.657L208.657 180.95L207.243 179.536Z" fill="white"/>
<path d="M229.243 201.536L230.657 200.121L229.95 199.414L228.536 200.828L227.121 199.414L226.414 200.121L227.829 201.536L226.414 202.95L227.121 203.657L228.536 202.243L229.95 203.657L230.657 202.95L229.243 201.536Z" fill="white"/>
<path d="M252.243 201.536L253.657 200.121L252.95 199.414L251.536 200.828L250.121 199.414L249.414 200.121L250.829 201.536L249.414 202.95L250.121 203.657L251.536 202.243L252.95 203.657L253.657 202.95L252.243 201.536Z" fill="white"/>
<path d="M229.243 179.536L230.657 178.121L229.95 177.414L228.536 178.828L227.121 177.414L226.414 178.121L227.829 179.536L226.414 180.95L227.121 181.657L228.536 180.243L229.95 181.657L230.657 180.95L229.243 179.536Z" fill="white"/>
<path d="M252.243 179.536L253.657 178.121L252.95 177.414L251.536 178.828L250.121 177.414L249.414 178.121L250.829 179.536L249.414 180.95L250.121 181.657L251.536 180.243L252.95 181.657L253.657 180.95L252.243 179.536Z" fill="white"/>
<path d="M274.243 201.536L275.657 200.121L274.95 199.414L273.536 200.828L272.121 199.414L271.414 200.121L272.829 201.536L271.414 202.95L272.121 203.657L273.536 202.243L274.95 203.657L275.657 202.95L274.243 201.536Z" fill="white"/>
<path d="M297.243 201.536L298.657 200.121L297.95 199.414L296.536 200.828L295.121 199.414L294.414 200.121L295.829 201.536L294.414 202.95L295.121 203.657L296.536 202.243L297.95 203.657L298.657 202.95L297.243 201.536Z" fill="white"/>
<path d="M274.243 179.536L275.657 178.121L274.95 177.414L273.536 178.828L272.121 177.414L271.414 178.121L272.829 179.536L271.414 180.95L272.121 181.657L273.536 180.243L274.95 181.657L275.657 180.95L274.243 179.536Z" fill="white"/>
<path d="M297.243 179.536L298.657 178.121L297.95 177.414L296.536 178.828L295.121 177.414L294.414 178.121L295.829 179.536L294.414 180.95L295.121 181.657L296.536 180.243L297.95 181.657L298.657 180.95L297.243 179.536Z" fill="white"/>
<path d="M319.243 201.536L320.657 200.121L319.95 199.414L318.536 200.828L317.121 199.414L316.414 200.121L317.829 201.536L316.414 202.95L317.121 203.657L318.536 202.243L319.95 203.657L320.657 202.95L319.243 201.536Z" fill="white"/>
<path d="M342.243 201.536L343.657 200.121L342.95 199.414L341.536 200.828L340.121 199.414L339.414 200.121L340.829 201.536L339.414 202.95L340.121 203.657L341.536 202.243L342.95 203.657L343.657 202.95L342.243 201.536Z" fill="white"/>
<path d="M319.243 179.536L320.657 178.121L319.95 177.414L318.536 178.828L317.121 177.414L316.414 178.121L317.829 179.536L316.414 180.95L317.121 181.657L318.536 180.243L319.95 181.657L320.657 180.95L319.243 179.536Z" fill="white"/>
<path d="M342.243 179.536L343.657 178.121L342.95 177.414L341.536 178.828L340.121 177.414L339.414 178.121L340.829 179.536L339.414 180.95L340.121 181.657L341.536 180.243L342.95 181.657L343.657 180.95L342.243 179.536Z" fill="white"/>
<path d="M364.243 201.536L365.657 200.121L364.95 199.414L363.536 200.828L362.121 199.414L361.414 200.121L362.829 201.536L361.414 202.95L362.121 203.657L363.536 202.243L364.95 203.657L365.657 202.95L364.243 201.536Z" fill="white"/>
<path d="M387.243 201.536L388.657 200.121L387.95 199.414L386.536 200.828L385.121 199.414L384.414 200.121L385.829 201.536L384.414 202.95L385.121 203.657L386.536 202.243L387.95 203.657L388.657 202.95L387.243 201.536Z" fill="white"/>
<path d="M364.243 179.536L365.657 178.121L364.95 177.414L363.536 178.828L362.121 177.414L361.414 178.121L362.829 179.536L361.414 180.95L362.121 181.657L363.536 180.243L364.95 181.657L365.657 180.95L364.243 179.536Z" fill="white"/>
<path d="M387.243 179.536L388.657 178.121L387.95 177.414L386.536 178.828L385.121 177.414L384.414 178.121L385.829 179.536L384.414 180.95L385.121 181.657L386.536 180.243L387.95 181.657L388.657 180.95L387.243 179.536Z" fill="white"/>
<path d="M409.243 201.536L410.657 200.121L409.95 199.414L408.536 200.828L407.121 199.414L406.414 200.121L407.829 201.536L406.414 202.95L407.121 203.657L408.536 202.243L409.95 203.657L410.657 202.95L409.243 201.536Z" fill="white"/>
<path d="M432.243 201.536L433.657 200.121L432.95 199.414L431.536 200.828L430.121 199.414L429.414 200.121L430.829 201.536L429.414 202.95L430.121 203.657L431.536 202.243L432.95 203.657L433.657 202.95L432.243 201.536Z" fill="white"/>
<path d="M409.243 179.536L410.657 178.121L409.95 177.414L408.536 178.828L407.121 177.414L406.414 178.121L407.829 179.536L406.414 180.95L407.121 181.657L408.536 180.243L409.95 181.657L410.657 180.95L409.243 179.536Z" fill="white"/>
<path d="M432.243 179.536L433.657 178.121L432.95 177.414L431.536 178.828L430.121 177.414L429.414 178.121L430.829 179.536L429.414 180.95L430.121 181.657L431.536 180.243L432.95 181.657L433.657 180.95L432.243 179.536Z" fill="white"/>
<path d="M454.243 201.536L455.657 200.121L454.95 199.414L453.536 200.828L452.121 199.414L451.414 200.121L452.829 201.536L451.414 202.95L452.121 203.657L453.536 202.243L454.95 203.657L455.657 202.95L454.243 201.536Z" fill="white"/>
<path d="M477.243 201.536L478.657 200.121L477.95 199.414L476.536 200.828L475.121 199.414L474.414 200.121L475.829 201.536L474.414 202.95L475.121 203.657L476.536 202.243L477.95 203.657L478.657 202.95L477.243 201.536Z" fill="white"/>
<path d="M454.243 179.536L455.657 178.121L454.95 177.414L453.536 178.828L452.121 177.414L451.414 178.121L452.829 179.536L451.414 180.95L452.121 181.657L453.536 180.243L454.95 181.657L455.657 180.95L454.243 179.536Z" fill="white"/>
<path d="M477.243 179.536L478.657 178.121L477.95 177.414L476.536 178.828L475.121 177.414L474.414 178.121L475.829 179.536L474.414 180.95L475.121 181.657L476.536 180.243L477.95 181.657L478.657 180.95L477.243 179.536Z" fill="white"/>
<path d="M499.243 201.536L500.657 200.121L499.95 199.414L498.536 200.828L497.121 199.414L496.414 200.121L497.829 201.536L496.414 202.95L497.121 203.657L498.536 202.243L499.95 203.657L500.657 202.95L499.243 201.536Z" fill="white"/>
<path d="M499.243 179.536L500.657 178.121L499.95 177.414L498.536 178.828L497.121 177.414L496.414 178.121L497.829 179.536L496.414 180.95L497.121 181.657L498.536 180.243L499.95 181.657L500.657 180.95L499.243 179.536Z" fill="white"/>
<path d="M521.243 201.536L522.657 200.121L521.95 199.414L520.536 200.828L519.121 199.414L518.414 200.121L519.829 201.536L518.414 202.95L519.121 203.657L520.536 202.243L521.95 203.657L522.657 202.95L521.243 201.536Z" fill="white"/>
<path d="M544.243 201.536L545.657 200.121L544.95 199.414L543.536 200.828L542.121 199.414L541.414 200.121L542.829 201.536L541.414 202.95L542.121 203.657L543.536 202.243L544.95 203.657L545.657 202.95L544.243 201.536Z" fill="white"/>
<path d="M521.243 179.536L522.657 178.121L521.95 177.414L520.536 178.828L519.121 177.414L518.414 178.121L519.829 179.536L518.414 180.95L519.121 181.657L520.536 180.243L521.95 181.657L522.657 180.95L521.243 179.536Z" fill="white"/>
<path d="M544.243 179.536L545.657 178.121L544.95 177.414L543.536 178.828L542.121 177.414L541.414 178.121L542.829 179.536L541.414 180.95L542.121 181.657L543.536 180.243L544.95 181.657L545.657 180.95L544.243 179.536Z" fill="white"/>
<path d="M566.243 201.536L567.657 200.121L566.95 199.414L565.536 200.828L564.121 199.414L563.414 200.121L564.829 201.536L563.414 202.95L564.121 203.657L565.536 202.243L566.95 203.657L567.657 202.95L566.243 201.536Z" fill="white"/>
<path d="M566.243 179.536L567.657 178.121L566.95 177.414L565.536 178.828L564.121 177.414L563.414 178.121L564.829 179.536L563.414 180.95L564.121 181.657L565.536 180.243L566.95 181.657L567.657 180.95L566.243 179.536Z" fill="white"/>
<path d="M4.24275 201.536L5.65696 200.121L4.94986 199.414L3.53564 200.828L2.12143 199.414L1.41432 200.121L2.82854 201.536L1.41432 202.95L2.12143 203.657L3.53564 202.243L4.94986 203.657L5.65696 202.95L4.24275 201.536Z" fill="white"/>
<path d="M27.2428 201.536L28.657 200.121L27.9499 199.414L26.5356 200.828L25.1214 199.414L24.4143 200.121L25.8285 201.536L24.4143 202.95L25.1214 203.657L26.5356 202.243L27.9499 203.657L28.657 202.95L27.2428 201.536Z" fill="white"/>
<path d="M4.24275 179.536L5.65696 178.121L4.94986 177.414L3.53564 178.828L2.12143 177.414L1.41432 178.121L2.82854 179.536L1.41432 180.95L2.12143 181.657L3.53564 180.243L4.94986 181.657L5.65696 180.95L4.24275 179.536Z" fill="white"/>
<path d="M27.2428 179.536L28.657 178.121L27.9499 177.414L26.5356 178.828L25.1214 177.414L24.4143 178.121L25.8285 179.536L24.4143 180.95L25.1214 181.657L26.5356 180.243L27.9499 181.657L28.657 180.95L27.2428 179.536Z" fill="white"/>
<path d="M49.2428 201.536L50.657 200.121L49.9499 199.414L48.5356 200.828L47.1214 199.414L46.4143 200.121L47.8285 201.536L46.4143 202.95L47.1214 203.657L48.5356 202.243L49.9499 203.657L50.657 202.95L49.2428 201.536Z" fill="white"/>
<path d="M72.2428 201.536L73.657 200.121L72.9499 199.414L71.5356 200.828L70.1214 199.414L69.4143 200.121L70.8285 201.536L69.4143 202.95L70.1214 203.657L71.5356 202.243L72.9499 203.657L73.657 202.95L72.2428 201.536Z" fill="white"/>
<path d="M49.2428 179.536L50.657 178.121L49.9499 177.414L48.5356 178.828L47.1214 177.414L46.4143 178.121L47.8285 179.536L46.4143 180.95L47.1214 181.657L48.5356 180.243L49.9499 181.657L50.657 180.95L49.2428 179.536Z" fill="white"/>
<path d="M72.2428 179.536L73.657 178.121L72.9499 177.414L71.5356 178.828L70.1214 177.414L69.4143 178.121L70.8285 179.536L69.4143 180.95L70.1214 181.657L71.5356 180.243L72.9499 181.657L73.657 180.95L72.2428 179.536Z" fill="white"/>
<path d="M94.2428 201.536L95.657 200.121L94.9499 199.414L93.5356 200.828L92.1214 199.414L91.4143 200.121L92.8285 201.536L91.4143 202.95L92.1214 203.657L93.5356 202.243L94.9499 203.657L95.657 202.95L94.2428 201.536Z" fill="white"/>
<path d="M117.243 201.536L118.657 200.121L117.95 199.414L116.536 200.828L115.121 199.414L114.414 200.121L115.829 201.536L114.414 202.95L115.121 203.657L116.536 202.243L117.95 203.657L118.657 202.95L117.243 201.536Z" fill="white"/>
<path d="M94.2428 179.536L95.657 178.121L94.9499 177.414L93.5356 178.828L92.1214 177.414L91.4143 178.121L92.8285 179.536L91.4143 180.95L92.1214 181.657L93.5356 180.243L94.9499 181.657L95.657 180.95L94.2428 179.536Z" fill="white"/>
<path d="M117.243 179.536L118.657 178.121L117.95 177.414L116.536 178.828L115.121 177.414L114.414 178.121L115.829 179.536L114.414 180.95L115.121 181.657L116.536 180.243L117.95 181.657L118.657 180.95L117.243 179.536Z" fill="white"/>
<path d="M49.2428 113.536L50.657 112.121L49.9499 111.414L48.5356 112.828L47.1214 111.414L46.4143 112.121L47.8285 113.536L46.4143 114.95L47.1214 115.657L48.5356 114.243L49.9499 115.657L50.657 114.95L49.2428 113.536Z" fill="white"/>
<path d="M72.2428 113.536L73.657 112.121L72.9499 111.414L71.5356 112.828L70.1214 111.414L69.4143 112.121L70.8285 113.536L69.4143 114.95L70.1214 115.657L71.5356 114.243L72.9499 115.657L73.657 114.95L72.2428 113.536Z" fill="white"/>
<path d="M49.2428 91.5355L50.657 90.1213L49.9499 89.4142L48.5356 90.8284L47.1214 89.4142L46.4143 90.1213L47.8285 91.5355L46.4143 92.9497L47.1214 93.6569L48.5356 92.2426L49.9499 93.6569L50.657 92.9497L49.2428 91.5355Z" fill="white"/>
<path d="M72.2428 91.5355L73.657 90.1213L72.9499 89.4142L71.5356 90.8284L70.1214 89.4142L69.4143 90.1213L70.8285 91.5355L69.4143 92.9497L70.1214 93.6569L71.5356 92.2426L72.9499 93.6569L73.657 92.9497L72.2428 91.5355Z" fill="white"/>
<path d="M94.2428 113.536L95.657 112.121L94.9499 111.414L93.5356 112.828L92.1214 111.414L91.4143 112.121L92.8285 113.536L91.4143 114.95L92.1214 115.657L93.5356 114.243L94.9499 115.657L95.657 114.95L94.2428 113.536Z" fill="white"/>
<path d="M117.243 113.536L118.657 112.121L117.95 111.414L116.536 112.828L115.121 111.414L114.414 112.121L115.829 113.536L114.414 114.95L115.121 115.657L116.536 114.243L117.95 115.657L118.657 114.95L117.243 113.536Z" fill="white"/>
<path d="M94.2428 91.5355L95.657 90.1213L94.9499 89.4142L93.5356 90.8284L92.1214 89.4142L91.4143 90.1213L92.8285 91.5355L91.4143 92.9497L92.1214 93.6569L93.5356 92.2426L94.9499 93.6569L95.657 92.9497L94.2428 91.5355Z" fill="white"/>
<path d="M117.243 91.5355L118.657 90.1213L117.95 89.4142L116.536 90.8284L115.121 89.4142L114.414 90.1213L115.829 91.5355L114.414 92.9497L115.121 93.6569L116.536 92.2426L117.95 93.6569L118.657 92.9497L117.243 91.5355Z" fill="white"/>
</g>
</svg>
