<svg width="97" height="206" viewBox="0 0 97 206" fill="none" xmlns="http://www.w3.org/2000/svg">
<g opacity="0.1">
<path d="M4.24275 69.5355L5.65696 68.1213L4.94986 67.4142L3.53564 68.8284L2.12143 67.4142L1.41432 68.1213L2.82854 69.5355L1.41432 70.9497L2.12143 71.6569L3.53564 70.2426L4.94986 71.6569L5.65696 70.9497L4.24275 69.5355Z" fill="#44454A"/>
<path d="M4.24275 47.5355L5.65696 46.1213L4.94986 45.4142L3.53564 46.8284L2.12143 45.4142L1.41432 46.1213L2.82854 47.5355L1.41432 48.9497L2.12143 49.6569L3.53564 48.2426L4.94986 49.6569L5.65696 48.9497L4.24275 47.5355Z" fill="#44454A"/>
<path d="M4.24275 25.5355L5.65696 24.1213L4.94986 23.4142L3.53564 24.8284L2.12143 23.4142L1.41432 24.1213L2.82854 25.5355L1.41432 26.9497L2.12143 27.6569L3.53564 26.2426L4.94986 27.6569L5.65696 26.9497L4.24275 25.5355Z" fill="#44454A"/>
<path d="M4.24275 3.53553L5.65696 2.12132L4.94986 1.41421L3.53564 2.82843L2.12143 1.41421L1.41432 2.12132L2.82854 3.53553L1.41432 4.94975L2.12143 5.65685L3.53564 4.24264L4.94986 5.65685L5.65696 4.94975L4.24275 3.53553Z" fill="#44454A"/>
<path d="M4.24275 157.536L5.65696 156.121L4.94986 155.414L3.53564 156.828L2.12143 155.414L1.41432 156.121L2.82854 157.536L1.41432 158.95L2.12143 159.657L3.53564 158.243L4.94986 159.657L5.65696 158.95L4.24275 157.536Z" fill="#44454A"/>
<path d="M4.24275 135.536L5.65696 134.121L4.94986 133.414L3.53564 134.828L2.12143 133.414L1.41432 134.121L2.82854 135.536L1.41432 136.95L2.12143 137.657L3.53564 136.243L4.94986 137.657L5.65696 136.95L4.24275 135.536Z" fill="#44454A"/>
<path d="M4.24275 113.536L5.65696 112.121L4.94986 111.414L3.53564 112.828L2.12143 111.414L1.41432 112.121L2.82854 113.536L1.41432 114.95L2.12143 115.657L3.53564 114.243L4.94986 115.657L5.65696 114.95L4.24275 113.536Z" fill="#44454A"/>
<path d="M4.24275 91.5355L5.65696 90.1213L4.94986 89.4142L3.53564 90.8284L2.12143 89.4142L1.41432 90.1213L2.82854 91.5355L1.41432 92.9497L2.12143 93.6569L3.53564 92.2426L4.94986 93.6569L5.65696 92.9497L4.24275 91.5355Z" fill="#44454A"/>
<path d="M26.2428 69.5355L27.657 68.1213L26.9499 67.4142L25.5356 68.8284L24.1214 67.4142L23.4143 68.1213L24.8285 69.5355L23.4143 70.9497L24.1214 71.6569L25.5356 70.2426L26.9499 71.6569L27.657 70.9497L26.2428 69.5355Z" fill="#44454A"/>
<path d="M26.2428 47.5355L27.657 46.1213L26.9499 45.4142L25.5356 46.8284L24.1214 45.4142L23.4143 46.1213L24.8285 47.5355L23.4143 48.9497L24.1214 49.6569L25.5356 48.2426L26.9499 49.6569L27.657 48.9497L26.2428 47.5355Z" fill="#44454A"/>
<path d="M48.2428 69.5355L49.657 68.1213L48.9499 67.4142L47.5356 68.8284L46.1214 67.4142L45.4143 68.1213L46.8285 69.5355L45.4143 70.9497L46.1214 71.6569L47.5356 70.2426L48.9499 71.6569L49.657 70.9497L48.2428 69.5355Z" fill="#44454A"/>
<path d="M71.2428 69.5355L72.657 68.1213L71.9499 67.4142L70.5356 68.8284L69.1214 67.4142L68.4143 68.1213L69.8285 69.5355L68.4143 70.9497L69.1214 71.6569L70.5356 70.2426L71.9499 71.6569L72.657 70.9497L71.2428 69.5355Z" fill="#44454A"/>
<path d="M48.2428 47.5355L49.657 46.1213L48.9499 45.4142L47.5356 46.8284L46.1214 45.4142L45.4143 46.1213L46.8285 47.5355L45.4143 48.9497L46.1214 49.6569L47.5356 48.2426L48.9499 49.6569L49.657 48.9497L48.2428 47.5355Z" fill="#44454A"/>
<path d="M71.2428 47.5355L72.657 46.1213L71.9499 45.4142L70.5356 46.8284L69.1214 45.4142L68.4143 46.1213L69.8285 47.5355L68.4143 48.9497L69.1214 49.6569L70.5356 48.2426L71.9499 49.6569L72.657 48.9497L71.2428 47.5355Z" fill="#44454A"/>
<path d="M26.2428 25.5355L27.657 24.1213L26.9499 23.4142L25.5356 24.8284L24.1214 23.4142L23.4143 24.1213L24.8285 25.5355L23.4143 26.9497L24.1214 27.6569L25.5356 26.2426L26.9499 27.6569L27.657 26.9497L26.2428 25.5355Z" fill="#44454A"/>
<path d="M26.2428 3.53553L27.657 2.12132L26.9499 1.41421L25.5356 2.82843L24.1214 1.41421L23.4143 2.12132L24.8285 3.53553L23.4143 4.94975L24.1214 5.65685L25.5356 4.24264L26.9499 5.65685L27.657 4.94975L26.2428 3.53553Z" fill="#44454A"/>
<path d="M48.2428 25.5355L49.657 24.1213L48.9499 23.4142L47.5356 24.8284L46.1214 23.4142L45.4143 24.1213L46.8285 25.5355L45.4143 26.9497L46.1214 27.6569L47.5356 26.2426L48.9499 27.6569L49.657 26.9497L48.2428 25.5355Z" fill="#44454A"/>
<path d="M71.2428 25.5355L72.657 24.1213L71.9499 23.4142L70.5356 24.8284L69.1214 23.4142L68.4143 24.1213L69.8285 25.5355L68.4143 26.9497L69.1214 27.6569L70.5356 26.2426L71.9499 27.6569L72.657 26.9497L71.2428 25.5355Z" fill="#44454A"/>
<path d="M48.2428 3.53553L49.657 2.12132L48.9499 1.41421L47.5356 2.82843L46.1214 1.41421L45.4143 2.12132L46.8285 3.53553L45.4143 4.94975L46.1214 5.65685L47.5356 4.24264L48.9499 5.65685L49.657 4.94975L48.2428 3.53553Z" fill="#44454A"/>
<path d="M71.2428 3.53553L72.657 2.12132L71.9499 1.41421L70.5356 2.82843L69.1214 1.41421L68.4143 2.12132L69.8285 3.53553L68.4143 4.94975L69.1214 5.65685L70.5356 4.24264L71.9499 5.65685L72.657 4.94975L71.2428 3.53553Z" fill="#44454A"/>
<path d="M26.2428 157.536L27.657 156.121L26.9499 155.414L25.5356 156.828L24.1214 155.414L23.4143 156.121L24.8285 157.536L23.4143 158.95L24.1214 159.657L25.5356 158.243L26.9499 159.657L27.657 158.95L26.2428 157.536Z" fill="#44454A"/>
<path d="M26.2428 135.536L27.657 134.121L26.9499 133.414L25.5356 134.828L24.1214 133.414L23.4143 134.121L24.8285 135.536L23.4143 136.95L24.1214 137.657L25.5356 136.243L26.9499 137.657L27.657 136.95L26.2428 135.536Z" fill="#44454A"/>
<path d="M48.2428 157.536L49.657 156.121L48.9499 155.414L47.5356 156.828L46.1214 155.414L45.4143 156.121L46.8285 157.536L45.4143 158.95L46.1214 159.657L47.5356 158.243L48.9499 159.657L49.657 158.95L48.2428 157.536Z" fill="#44454A"/>
<path d="M71.2428 157.536L72.657 156.121L71.9499 155.414L70.5356 156.828L69.1214 155.414L68.4143 156.121L69.8285 157.536L68.4143 158.95L69.1214 159.657L70.5356 158.243L71.9499 159.657L72.657 158.95L71.2428 157.536Z" fill="#44454A"/>
<path d="M48.2428 135.536L49.657 134.121L48.9499 133.414L47.5356 134.828L46.1214 133.414L45.4143 134.121L46.8285 135.536L45.4143 136.95L46.1214 137.657L47.5356 136.243L48.9499 137.657L49.657 136.95L48.2428 135.536Z" fill="#44454A"/>
<path d="M71.2428 135.536L72.657 134.121L71.9499 133.414L70.5356 134.828L69.1214 133.414L68.4143 134.121L69.8285 135.536L68.4143 136.95L69.1214 137.657L70.5356 136.243L71.9499 137.657L72.657 136.95L71.2428 135.536Z" fill="#44454A"/>
<path d="M26.2428 113.536L27.657 112.121L26.9499 111.414L25.5356 112.828L24.1214 111.414L23.4143 112.121L24.8285 113.536L23.4143 114.95L24.1214 115.657L25.5356 114.243L26.9499 115.657L27.657 114.95L26.2428 113.536Z" fill="#44454A"/>
<path d="M26.2428 91.5355L27.657 90.1213L26.9499 89.4142L25.5356 90.8284L24.1214 89.4142L23.4143 90.1213L24.8285 91.5355L23.4143 92.9497L24.1214 93.6569L25.5356 92.2426L26.9499 93.6569L27.657 92.9497L26.2428 91.5355Z" fill="#44454A"/>
<path d="M48.2428 113.536L49.657 112.121L48.9499 111.414L47.5356 112.828L46.1214 111.414L45.4143 112.121L46.8285 113.536L45.4143 114.95L46.1214 115.657L47.5356 114.243L48.9499 115.657L49.657 114.95L48.2428 113.536Z" fill="#44454A"/>
<path d="M71.2428 113.536L72.657 112.121L71.9499 111.414L70.5356 112.828L69.1214 111.414L68.4143 112.121L69.8285 113.536L68.4143 114.95L69.1214 115.657L70.5356 114.243L71.9499 115.657L72.657 114.95L71.2428 113.536Z" fill="#44454A"/>
<path d="M48.2428 91.5355L49.657 90.1213L48.9499 89.4142L47.5356 90.8284L46.1214 89.4142L45.4143 90.1213L46.8285 91.5355L45.4143 92.9497L46.1214 93.6569L47.5356 92.2426L48.9499 93.6569L49.657 92.9497L48.2428 91.5355Z" fill="#44454A"/>
<path d="M71.2428 91.5355L72.657 90.1213L71.9499 89.4142L70.5356 90.8284L69.1214 89.4142L68.4143 90.1213L69.8285 91.5355L68.4143 92.9497L69.1214 93.6569L70.5356 92.2426L71.9499 93.6569L72.657 92.9497L71.2428 91.5355Z" fill="#44454A"/>
<path d="M93.2428 69.5355L94.657 68.1213L93.9499 67.4142L92.5356 68.8284L91.1214 67.4142L90.4143 68.1213L91.8285 69.5355L90.4143 70.9497L91.1214 71.6569L92.5356 70.2426L93.9499 71.6569L94.657 70.9497L93.2428 69.5355Z" fill="#44454A"/>
<path d="M93.2428 47.5355L94.657 46.1213L93.9499 45.4142L92.5356 46.8284L91.1214 45.4142L90.4143 46.1213L91.8285 47.5355L90.4143 48.9497L91.1214 49.6569L92.5356 48.2426L93.9499 49.6569L94.657 48.9497L93.2428 47.5355Z" fill="#44454A"/>
<path d="M93.2428 25.5355L94.657 24.1213L93.9499 23.4142L92.5356 24.8284L91.1214 23.4142L90.4143 24.1213L91.8285 25.5355L90.4143 26.9497L91.1214 27.6569L92.5356 26.2426L93.9499 27.6569L94.657 26.9497L93.2428 25.5355Z" fill="#44454A"/>
<path d="M93.2428 3.53553L94.657 2.12132L93.9499 1.41421L92.5356 2.82843L91.1214 1.41421L90.4143 2.12132L91.8285 3.53553L90.4143 4.94975L91.1214 5.65685L92.5356 4.24264L93.9499 5.65685L94.657 4.94975L93.2428 3.53553Z" fill="#44454A"/>
<path d="M93.2428 157.536L94.657 156.121L93.9499 155.414L92.5356 156.828L91.1214 155.414L90.4143 156.121L91.8285 157.536L90.4143 158.95L91.1214 159.657L92.5356 158.243L93.9499 159.657L94.657 158.95L93.2428 157.536Z" fill="#44454A"/>
<path d="M93.2428 135.536L94.657 134.121L93.9499 133.414L92.5356 134.828L91.1214 133.414L90.4143 134.121L91.8285 135.536L90.4143 136.95L91.1214 137.657L92.5356 136.243L93.9499 137.657L94.657 136.95L93.2428 135.536Z" fill="#44454A"/>
<path d="M93.2428 113.536L94.657 112.121L93.9499 111.414L92.5356 112.828L91.1214 111.414L90.4143 112.121L91.8285 113.536L90.4143 114.95L91.1214 115.657L92.5356 114.243L93.9499 115.657L94.657 114.95L93.2428 113.536Z" fill="#44454A"/>
<path d="M93.2428 91.5355L94.657 90.1213L93.9499 89.4142L92.5356 90.8284L91.1214 89.4142L90.4143 90.1213L91.8285 91.5355L90.4143 92.9497L91.1214 93.6569L92.5356 92.2426L93.9499 93.6569L94.657 92.9497L93.2428 91.5355Z" fill="#44454A"/>
<path d="M4.24275 201.536L5.65696 200.121L4.94986 199.414L3.53564 200.828L2.12143 199.414L1.41432 200.121L2.82854 201.536L1.41432 202.95L2.12143 203.657L3.53564 202.243L4.94986 203.657L5.65696 202.95L4.24275 201.536Z" fill="#44454A"/>
<path d="M4.24275 179.536L5.65696 178.121L4.94986 177.414L3.53564 178.828L2.12143 177.414L1.41432 178.121L2.82854 179.536L1.41432 180.95L2.12143 181.657L3.53564 180.243L4.94986 181.657L5.65696 180.95L4.24275 179.536Z" fill="#44454A"/>
<path d="M26.2428 201.536L27.657 200.121L26.9499 199.414L25.5356 200.828L24.1214 199.414L23.4143 200.121L24.8285 201.536L23.4143 202.95L24.1214 203.657L25.5356 202.243L26.9499 203.657L27.657 202.95L26.2428 201.536Z" fill="#44454A"/>
<path d="M26.2428 179.536L27.657 178.121L26.9499 177.414L25.5356 178.828L24.1214 177.414L23.4143 178.121L24.8285 179.536L23.4143 180.95L24.1214 181.657L25.5356 180.243L26.9499 181.657L27.657 180.95L26.2428 179.536Z" fill="#44454A"/>
<path d="M48.2428 201.536L49.657 200.121L48.9499 199.414L47.5356 200.828L46.1214 199.414L45.4143 200.121L46.8285 201.536L45.4143 202.95L46.1214 203.657L47.5356 202.243L48.9499 203.657L49.657 202.95L48.2428 201.536Z" fill="#44454A"/>
<path d="M71.2428 201.536L72.657 200.121L71.9499 199.414L70.5356 200.828L69.1214 199.414L68.4143 200.121L69.8285 201.536L68.4143 202.95L69.1214 203.657L70.5356 202.243L71.9499 203.657L72.657 202.95L71.2428 201.536Z" fill="#44454A"/>
<path d="M48.2428 179.536L49.657 178.121L48.9499 177.414L47.5356 178.828L46.1214 177.414L45.4143 178.121L46.8285 179.536L45.4143 180.95L46.1214 181.657L47.5356 180.243L48.9499 181.657L49.657 180.95L48.2428 179.536Z" fill="#44454A"/>
<path d="M71.2428 179.536L72.657 178.121L71.9499 177.414L70.5356 178.828L69.1214 177.414L68.4143 178.121L69.8285 179.536L68.4143 180.95L69.1214 181.657L70.5356 180.243L71.9499 181.657L72.657 180.95L71.2428 179.536Z" fill="#44454A"/>
<path d="M93.2428 201.536L94.657 200.121L93.9499 199.414L92.5356 200.828L91.1214 199.414L90.4143 200.121L91.8285 201.536L90.4143 202.95L91.1214 203.657L92.5356 202.243L93.9499 203.657L94.657 202.95L93.2428 201.536Z" fill="#44454A"/>
<path d="M93.2428 179.536L94.657 178.121L93.9499 177.414L92.5356 178.828L91.1214 177.414L90.4143 178.121L91.8285 179.536L90.4143 180.95L91.1214 181.657L92.5356 180.243L93.9499 181.657L94.657 180.95L93.2428 179.536Z" fill="#44454A"/>
</g>
</svg>
