<svg width="23" height="20" viewBox="0 0 23 20" fill="none" xmlns="http://www.w3.org/2000/svg">
<path d="M21.8066 3.26745C21.7015 3.15685 21.5262 3.11997 21.386 3.15685L20.685 3.41497C21.1056 2.89877 21.386 2.34569 21.5612 1.82949C21.6314 1.64513 21.5963 1.49765 21.4911 1.38701C21.386 1.27641 21.2107 1.23953 21.0705 1.31325C20.0891 1.75573 19.2479 2.12445 18.5469 2.34565C18.5469 2.38253 18.5119 2.34565 18.4768 2.34565C17.916 2.01381 16.549 1.27637 15.5677 1.27637C13.0791 1.31325 11.0813 3.52557 11.0813 6.21721V6.36469C7.43606 5.62725 5.43823 4.52109 3.2651 2.12441L2.91468 1.75569L2.70437 2.19817C1.51268 4.59485 2.35387 6.77029 3.72082 8.24517C3.08993 8.13457 2.66932 7.91333 2.28376 7.58149C2.14356 7.4709 1.96831 7.43401 1.79306 7.54461C1.65287 7.61838 1.58275 7.83957 1.61781 8.02393C2.10851 9.75689 3.33526 11.1581 4.66715 12.0061C4.03626 12.0061 3.51051 11.9323 2.98476 11.5636C2.84457 11.4899 2.63426 11.4899 2.49407 11.6005C2.35387 11.7111 2.28376 11.8955 2.35387 12.0798C2.98476 13.9603 4.21151 14.9558 6.17433 15.2139C5.15788 15.8408 3.82599 16.357 1.75805 16.3939C1.54774 16.3939 1.37249 16.5413 1.30241 16.7257C1.23229 16.9469 1.30241 17.1313 1.4426 17.2788C2.70441 18.3481 5.50838 18.9749 8.97834 18.9749C15.1471 18.9749 20.1943 13.186 20.1943 6.06973V5.95913C20.9654 5.55353 21.5963 4.77921 21.9118 3.70993C21.9468 3.56241 21.9117 3.37805 21.8066 3.26745ZM19.7036 5.36913L19.4933 5.44289V6.06973C19.4933 12.7804 14.7615 18.2375 8.97829 18.2375C5.78873 18.2375 3.6507 17.6844 2.49407 17.0944C4.91251 16.9101 6.31452 16.0989 7.40108 15.2139L8.27733 14.5503H7.22583C5.228 14.5503 4.00124 13.9603 3.30024 12.5592C3.93113 12.7804 4.59707 12.7804 5.33313 12.7435C5.61352 12.7067 5.89394 12.7067 6.17433 12.7067L6.27946 11.9692C4.94757 11.5636 3.37032 10.31 2.5992 8.61389C3.3002 8.94573 4.07128 9.0195 4.77228 9.0195H5.85884L4.98263 8.35577C4.24657 7.80269 2.07349 5.84849 3.12499 3.04621C5.36819 5.36913 7.50625 6.43841 11.3617 7.17585L11.7823 7.24961V6.21721C11.7823 3.93117 13.4647 2.05069 15.5677 2.01381C16.3739 1.97693 17.7058 2.75125 18.0913 2.97249C18.3016 3.08309 18.5119 3.11997 18.7222 3.04625C19.248 2.86189 19.8788 2.60377 20.5798 2.30881C20.2644 2.86189 19.8438 3.37809 19.283 3.85745C19.1428 3.96805 19.1078 4.18929 19.1779 4.37365C19.248 4.55801 19.4583 4.63177 19.6335 4.55801L21.0005 4.07869C20.7551 4.55797 20.3695 5.11105 19.7036 5.36913Z" fill="#2576D5" stroke="#FFFFFF" stroke-width="0.8"/>
</svg>
