<svg width="77" height="77" viewBox="0 0 77 77" fill="none" xmlns="http://www.w3.org/2000/svg">
<path d="M64.6288 27.4028C65.1994 28.8547 65.6469 30.352 65.9667 31.8788C66.0196 32.1309 66.1575 32.3571 66.3572 32.5196C66.557 32.6821 66.8065 32.7711 67.064 32.7716C67.1416 32.7716 67.219 32.7636 67.2949 32.7479C67.4393 32.7177 67.5762 32.6594 67.698 32.5763C67.8198 32.4932 67.9241 32.3869 68.0048 32.2635C68.0855 32.1401 68.1411 32.002 68.1684 31.8571C68.1957 31.7122 68.1942 31.5633 68.1639 31.419C67.8185 29.7693 67.3354 28.1515 66.7196 26.5826C66.6107 26.3055 66.3961 26.083 66.1232 25.9641C65.8502 25.8452 65.5412 25.8396 65.2641 25.9486C64.987 26.0575 64.7645 26.2721 64.6456 26.5451C64.5267 26.818 64.5212 27.127 64.6301 27.4041L64.6288 27.4028Z" fill="#F7F7F7"/>
<path d="M75.3776 35.0946H72.5486C72.0218 27.9969 69.2902 21.2414 64.7358 15.7723C60.1813 10.3032 54.0317 6.39404 47.1467 4.5913C46.8649 3.5332 46.242 2.59762 45.3744 1.92959C44.5068 1.26157 43.4431 0.898433 42.3481 0.896484H34.6519C33.5563 0.89841 32.492 1.26199 31.6242 1.93079C30.7564 2.59959 30.1336 3.53618 29.8527 4.59515C22.9759 6.41241 16.8354 10.3252 12.2831 15.7905C7.73093 21.2558 4.99282 28.0026 4.44879 35.0946H1.62236C1.47495 35.0945 1.32896 35.1235 1.19275 35.1798C1.05654 35.2362 0.932782 35.3189 0.828545 35.4231C0.724307 35.5273 0.641637 35.6511 0.585263 35.7873C0.528889 35.9235 0.499916 36.0695 0.5 36.2169V41.9891C0.5 42.2867 0.618249 42.5722 0.828733 42.7827C1.03922 42.9932 1.32469 43.1114 1.62236 43.1114H4.3481V45.9513C4.37755 53.3117 7.10151 60.4065 12.0054 65.8955C16.9093 71.3844 23.6535 74.8874 30.9641 75.7427V75.7741C30.9641 76.0718 31.0824 76.3573 31.2929 76.5677C31.5034 76.7782 31.7888 76.8965 32.0865 76.8965H44.9135C45.2112 76.8965 45.4966 76.7782 45.7071 76.5677C45.9176 76.3573 46.0359 76.0718 46.0359 75.7741V75.7427C53.3465 74.8874 60.0907 71.3844 64.9946 65.8955C69.8985 60.4065 72.6225 53.3117 72.6519 45.9513V43.1114H75.3776C75.6753 43.1114 75.9608 42.9932 76.1713 42.7827C76.3818 42.5722 76.5 42.2867 76.5 41.9891V36.2169C76.5001 36.0695 76.4711 35.9235 76.4147 35.7873C76.3584 35.6511 76.2757 35.5273 76.1715 35.4231C76.0672 35.3189 75.9435 35.2362 75.8073 35.1798C75.671 35.1235 75.5251 35.0945 75.3776 35.0946ZM70.3001 35.0946H47.3186V6.96494C49.7371 7.65867 52.0645 8.63785 54.2516 9.8818V22.8563C54.2527 23.9191 54.6754 24.9379 55.4269 25.6894C56.1784 26.4409 57.1973 26.8636 58.26 26.8648C59.3227 26.8636 60.3416 26.4409 61.0931 25.6894C61.8446 24.9379 62.2673 23.9191 62.2684 22.8563V16.3537C66.9329 21.548 69.7557 28.1346 70.3001 35.0946ZM56.4963 11.2876C57.7362 12.1364 58.9149 13.0712 60.0237 14.0852V22.8563C60.023 23.3239 59.837 23.7721 59.5064 24.1027C59.1758 24.4333 58.7276 24.6194 58.26 24.62C57.7925 24.6192 57.3444 24.4331 57.0138 24.1025C56.6832 23.7719 56.4971 23.3238 56.4963 22.8563V11.2876ZM34.6519 3.14121H37.3776V22.5421C37.3776 22.8397 37.4959 23.1252 37.7064 23.3357C37.9169 23.5462 38.2023 23.6644 38.5 23.6644C38.7977 23.6644 39.0831 23.5462 39.2936 23.3357C39.5041 23.1252 39.6224 22.8397 39.6224 22.5421V3.14121H42.3481C43.0708 3.14206 43.7636 3.42951 44.2746 3.9405C44.7855 4.45149 45.073 5.1443 45.0738 5.86695V35.0946H31.9262V5.86695C31.927 5.1443 32.2145 4.45149 32.7254 3.9405C33.2364 3.42951 33.9292 3.14206 34.6519 3.14121ZM16.9763 14.1083C18.0846 13.0886 19.2633 12.1482 20.5037 11.2941V22.8563C20.5025 23.3237 20.3163 23.7716 19.9858 24.1021C19.6553 24.4326 19.2074 24.6188 18.74 24.62C18.2724 24.6194 17.8242 24.4333 17.4936 24.1027C17.163 23.7721 16.977 23.3239 16.9763 22.8563V14.1083ZM14.7316 16.3748V22.8525C14.7327 23.9152 15.1554 24.9341 15.9069 25.6855C16.6584 26.437 17.6773 26.8597 18.74 26.8609C19.8027 26.8597 20.8216 26.437 21.5731 25.6855C22.3246 24.9341 22.7472 23.9152 22.7484 22.8525V9.8895C24.9346 8.64161 27.2621 7.65958 29.6814 6.9643V35.0946H6.69737C7.25727 28.1446 10.0793 21.5696 14.7316 16.3761V16.3748ZM6.59283 45.9513V43.1114H8.1962V45.9513C8.2357 52.2878 10.5603 58.3972 14.743 63.1571C18.9256 67.9171 24.6854 71.008 30.9641 71.8619V73.4858C24.2514 72.6374 18.0766 69.3756 13.5921 64.3091C9.10765 59.2425 6.61979 52.7174 6.59283 45.9513ZM66.5591 43.1114V45.9513C66.5238 51.7062 64.4269 57.2578 60.6488 61.5989C56.8706 65.9399 51.6615 68.7829 45.9666 69.612C45.9666 69.6056 45.9595 69.6011 45.957 69.5947C45.9212 69.5033 45.8736 69.4171 45.8152 69.3382C45.8024 69.3202 45.7877 69.3048 45.7736 69.2875C45.7169 69.219 45.6523 69.1574 45.5811 69.1041C45.5709 69.0964 45.5619 69.0874 45.5516 69.0797C45.4699 69.0243 45.3813 68.9799 45.2881 68.9476C45.2656 68.9399 45.2438 68.9335 45.2239 68.9271C45.1233 68.8964 45.0187 68.8805 44.9135 68.8796H32.0865C31.9817 68.881 31.8776 68.8974 31.7774 68.9283C31.7549 68.9348 31.7331 68.9412 31.7132 68.9489C31.62 68.9812 31.5313 69.0256 31.4496 69.081C31.4394 69.0887 31.4304 69.0977 31.4201 69.1054C31.349 69.1589 31.2844 69.2207 31.2277 69.2894C31.2143 69.3061 31.1995 69.3215 31.1867 69.3395C31.1282 69.4183 31.0805 69.5045 31.0449 69.596C31.0449 69.6018 31.0379 69.6069 31.0353 69.6133C25.3398 68.7846 20.1301 65.9416 16.3516 61.6002C12.573 57.2588 10.4759 51.7067 10.4409 45.9513V43.1114H66.5591ZM43.7911 74.6518H33.2089V71.1243H43.7911V74.6518ZM70.4072 45.9513C70.3805 52.7176 67.8928 59.2431 63.4083 64.3099C58.9238 69.3767 52.7488 72.6387 46.0359 73.4871V71.8619C52.3146 71.008 58.0744 67.9171 62.257 63.1571C66.4397 58.3972 68.7643 52.2878 68.8038 45.9513V43.1114H70.4072V45.9513ZM74.2553 40.8667H2.74473V37.3393H74.2553V40.8667Z" fill="#F7F7F7"/>
</svg>
