<svg width="26" height="15" viewBox="0 0 26 15" fill="none" xmlns="http://www.w3.org/2000/svg">
<path d="M1.5 7.46484L0.792893 6.75773L0.0857873 7.46484L0.792893 8.17195L1.5 7.46484ZM6.79289 14.1719C7.18342 14.5625 7.81658 14.5625 8.20711 14.1719C8.59763 13.7814 8.59763 13.1483 8.20711 12.7577L6.79289 14.1719ZM8.20711 2.17195C8.59763 1.78142 8.59763 1.14826 8.20711 0.757736C7.81658 0.367211 7.18342 0.367211 6.79289 0.757736L8.20711 2.17195ZM25.5 6.46484L1.5 6.46484L1.5 8.46484L25.5 8.46484L25.5 6.46484ZM0.792893 8.17195L6.79289 14.1719L8.20711 12.7577L2.20711 6.75774L0.792893 8.17195ZM2.20711 8.17195L8.20711 2.17195L6.79289 0.757736L0.792893 6.75773L2.20711 8.17195Z" fill="#44454A"/>
</svg>
