<svg width="13" height="21" viewBox="0 0 13 21" fill="none" xmlns="http://www.w3.org/2000/svg">
<path d="M9.9346 4.16251H11.7752V0.802094H8.43029C8.15125 0.790484 4.74981 0.725466 3.8682 4.08743C3.85543 4.12265 3.57369 4.92222 3.57369 6.78993L0.515137 6.79922V10.3237L3.57756 10.3148V19.6112H8.25536V10.323H11.3514V6.78916H8.25536V5.67727C8.25536 4.98607 8.54678 4.16251 9.9346 4.16251ZM10.5774 7.56279V9.54855H7.48134V18.8368H4.35158V9.53849L1.28916 9.54739V7.57092L4.35971 7.56202L4.35158 7.16843C4.31133 5.19003 4.59346 4.35795 4.60623 4.31809C5.3671 1.42247 8.27239 1.56799 8.39701 1.57573L11.0012 1.5765V3.38888H9.9346C8.1261 3.38888 7.48172 4.57081 7.48172 5.67689V7.56279H10.5774Z" fill="white" stroke="white" stroke-width="0.8"/>
</svg>
