<svg width="13" height="15" viewBox="0 0 13 15" fill="none" xmlns="http://www.w3.org/2000/svg">
<path d="M12.6591 10.7336L10.8411 8.77982C10.1918 8.08206 9.08802 8.36119 8.82831 9.26826C8.63352 9.89627 7.98423 10.2452 7.39987 10.1056C6.1013 9.75669 4.34822 7.9425 4.02358 6.4772C3.82879 5.84918 4.21836 5.15142 4.80272 4.94212C5.6468 4.66301 5.90651 3.47681 5.25722 2.77905L3.43922 0.825311C2.91979 0.336876 2.14064 0.336876 1.68614 0.825311L0.452493 2.15106C-0.781154 3.54659 0.582351 7.24474 3.634 10.5242C6.68566 13.8037 10.1269 15.3388 11.4255 13.9433L12.6591 12.6175C13.1136 12.0593 13.1136 11.222 12.6591 10.7336Z" fill="#44454A"/>
</svg>
