<svg width="69" height="69" viewBox="0 0 69 69" fill="none" xmlns="http://www.w3.org/2000/svg">
<path d="M28.2619 17.3671H20.4891C18.8735 17.3671 17.5591 18.6814 17.5591 20.2971V31.084H17.2216C15.6061 31.084 14.2916 32.3983 14.2916 34.0139C14.2916 35.6295 15.606 36.9439 17.2216 36.9439H17.5591V38.7677H17.2216C15.6061 38.7677 14.2916 40.0821 14.2916 41.6977C14.2916 43.3132 15.606 44.6277 17.2216 44.6277H17.5591V47.3374C17.5591 48.953 18.8734 50.2674 20.4891 50.2674C22.1046 50.2674 23.4191 48.9531 23.4191 47.3374V44.6277H27.8047C29.4202 44.6277 30.7346 43.3133 30.7346 41.6977C30.7346 40.0821 29.4203 38.7677 27.8047 38.7677H23.4191V36.9439H28.2619C33.6593 36.9439 38.0502 32.5529 38.0502 27.1556C38.0502 21.758 33.6593 17.3671 28.2619 17.3671ZM28.2619 34.9515H22.423C21.8729 34.9515 21.4269 35.3975 21.4269 35.9476V39.7635C21.4269 40.3136 21.8729 40.7596 22.423 40.7596H27.8047C28.3217 40.7596 28.7424 41.1804 28.7424 41.6974C28.7424 42.2145 28.3218 42.6352 27.8047 42.6352H22.423C21.8729 42.6352 21.4269 43.0812 21.4269 43.6313V47.3372C21.4269 47.8542 21.0063 48.275 20.4891 48.275C19.972 48.275 19.5513 47.8543 19.5513 47.3372V43.6313C19.5513 43.0812 19.1053 42.6352 18.5552 42.6352H17.2216C16.7046 42.6352 16.2838 42.2146 16.2838 41.6974C16.2838 41.1804 16.7045 40.7596 17.2216 40.7596H18.5552C19.1053 40.7596 19.5513 40.3136 19.5513 39.7635V35.9476C19.5513 35.3975 19.1053 34.9515 18.5552 34.9515H17.2216C16.7046 34.9515 16.2838 34.5308 16.2838 34.0137C16.2838 33.4965 16.7045 33.0759 17.2216 33.0759H18.5552C19.1053 33.0759 19.5513 32.6299 19.5513 32.0798V20.2968C19.5513 19.7798 19.9719 19.359 20.4891 19.359H28.2619C32.5607 19.359 36.058 22.8564 36.058 27.1551C36.058 31.4539 32.5607 34.9515 28.2619 34.9515ZM14.9127 60.2132C11.1323 57.284 8.0047 53.4828 5.86815 49.2206C3.628 44.7518 2.49219 39.9325 2.49219 34.8965C2.49219 26.3468 5.82153 18.309 11.867 12.2635C17.9125 6.21802 25.9503 2.88867 34.5 2.88867C38.9495 2.88867 43.2555 3.78396 47.2985 5.5497C51.2044 7.25555 54.6847 9.69 57.6428 12.7852C58.023 13.1828 58.6534 13.1972 59.0511 12.8171C59.4488 12.437 59.463 11.8065 59.0829 11.4087C55.9415 8.12162 52.2448 5.53616 48.0956 3.72406C43.7998 1.84782 39.2256 0.896484 34.5 0.896484C25.4183 0.896484 16.88 4.43302 10.4583 10.8549C4.03666 17.2765 0.5 25.8148 0.5 34.8965C0.5 40.2452 1.70687 45.3649 4.08713 50.1132C6.35637 54.6403 9.67788 58.6772 13.6924 61.788C13.874 61.9286 14.0887 61.9967 14.3017 61.9967C14.5992 61.9967 14.8936 61.8641 15.0899 61.6107C15.4268 61.1758 15.3475 60.5501 14.9127 60.2132ZM62.1844 15.1543C61.8646 14.7067 61.2425 14.603 60.7949 14.9228C60.3472 15.2426 60.2436 15.8647 60.5633 16.3123C64.4521 21.7563 66.5078 28.1825 66.5078 34.8965C66.5078 43.4462 63.1785 51.484 57.133 57.5295C51.0875 63.575 43.0497 66.9043 34.5 66.9043C29.0256 66.9043 23.6236 65.4989 18.8779 62.8398C18.3981 62.5709 17.791 62.742 17.522 63.2219C17.2532 63.7019 17.4242 64.3089 17.9041 64.5778C22.9466 67.4031 28.6853 68.8965 34.5 68.8965C43.5817 68.8965 52.12 65.3598 58.5417 58.9382C64.9635 52.5165 68.5 43.9782 68.5 34.8965C68.5 27.7649 66.316 20.9382 62.1844 15.1543ZM34.5 6.93773C19.0835 6.93773 6.54124 19.48 6.54124 34.8965C6.54124 50.313 19.0835 62.8552 34.5 62.8552C38.6277 62.8552 42.5488 61.9553 46.0789 60.3426C46.1538 60.3181 46.2261 60.2844 46.2945 60.2418C49.4018 58.79 52.1997 56.7837 54.5601 54.3502C54.6458 54.2866 54.7215 54.2086 54.7839 54.1184C59.5379 49.1042 62.4586 42.3353 62.4586 34.8966C62.4588 19.48 49.9165 6.93773 34.5 6.93773ZM52.7348 34.8282C52.6062 36.9816 53.1108 39.1749 53.423 40.2905C53.4339 40.3293 53.447 40.3673 53.4624 40.4045C53.6816 40.9316 53.8675 41.486 54.0152 42.0523C54.0169 42.0589 54.0188 42.0657 54.0206 42.0723L54.0188 42.0658L54.0298 42.1111C54.8551 45.3371 54.5275 49.1891 53.1135 52.9816C52.0338 54.0925 50.8564 55.1082 49.5941 56.0129C49.9839 55.3554 50.344 54.6749 50.6687 53.9767C52.4734 50.0967 53.0429 45.9721 52.2309 42.6606C52.2208 42.6193 52.208 42.5785 52.1926 42.5388C52.0255 42.1065 51.8575 41.6046 51.7065 41.0873C51.6948 41.0473 51.6808 41.0081 51.6642 40.97C51.5194 40.6364 51.362 40.3213 51.1965 40.0338C49.5633 37.1947 47.2378 36.9685 45.9969 37.0859C43.8074 37.2931 41.6894 38.7972 41.0705 40.5848C40.9886 40.8214 40.8194 41.012 40.5941 41.1214C40.3687 41.2308 40.1143 41.2459 39.8776 41.164C39.6409 41.0821 39.4503 40.9129 39.3408 40.6875C39.2313 40.4623 39.2162 40.2078 39.2981 39.9711C40.0423 37.8218 42.2602 35.9784 44.8175 35.3839C45.1123 35.3154 45.3598 35.1167 45.4904 34.8438C45.6211 34.5708 45.6205 34.2534 45.4892 33.9809C44.8944 32.7478 44.4697 31.3487 44.2268 29.8221C43.7124 26.5897 44.2653 23.8538 45.7839 22.1185C46.1243 21.7295 46.718 21.6897 47.1071 22.0303C47.2956 22.1952 47.4086 22.4237 47.4253 22.6736C47.4419 22.9236 47.3604 23.165 47.1954 23.3535C46.0668 24.6432 45.66 26.8936 46.0791 29.5271C46.2564 30.6413 46.628 31.8915 47.0987 32.957C47.6676 34.2449 48.3094 35.1413 49.0063 35.6214C49.0614 35.6594 49.1201 35.6915 49.1816 35.7178C49.2682 35.7546 49.3539 35.7934 49.439 35.8339C49.7417 35.9781 50.0964 35.9604 50.383 35.7869C50.6698 35.6134 50.8501 35.3074 50.8629 34.9726C50.9838 31.8016 52.1513 29.6859 54.333 28.6843C54.5607 28.5799 54.8154 28.5704 55.0502 28.6574C55.285 28.7445 55.4719 28.9178 55.5764 29.1454C55.6809 29.3731 55.6905 29.6277 55.6034 29.8626C55.5164 30.0974 55.3429 30.2843 55.1153 30.3888C54.123 30.8445 52.9046 31.9844 52.7348 34.8282ZM56.1919 49.1524C56.622 46.5044 56.5505 43.926 55.9592 41.6147C55.9535 41.5897 55.9474 41.5649 55.9405 41.5402C55.7754 40.9088 55.5687 40.2892 55.3258 39.6974C54.4438 36.5072 54.3738 32.9216 55.9463 32.1996C56.6576 31.8731 57.1991 31.2893 57.4712 30.5555C57.7434 29.8217 57.7134 29.0259 57.3869 28.3147C57.0605 27.6035 56.4765 27.0619 55.7428 26.7899C55.0089 26.5177 54.2131 26.5476 53.5019 26.8742C51.2119 27.9254 49.7305 29.8954 49.1448 32.6335C48.6625 31.6831 48.2363 30.4064 48.0466 29.2146C47.7304 27.2272 47.9786 25.4843 48.6947 24.6659C49.2102 24.0769 49.4653 23.3225 49.4132 22.5416C49.3612 21.7607 49.0082 21.0468 48.4192 20.5315C47.2033 19.4677 45.3485 19.5913 44.285 20.8071C42.3699 22.9957 41.6508 26.3086 42.2597 30.1357C42.4661 31.433 42.792 32.6542 43.2315 33.7807C40.5225 34.7621 38.2597 36.8824 37.4158 39.3198C37.1597 40.0593 37.207 40.8543 37.549 41.5582C37.8908 42.2623 38.4865 42.791 39.2261 43.0471C39.9655 43.303 40.7605 43.2557 41.4646 42.9138C42.1686 42.5718 42.6973 41.9763 42.9533 41.2368C43.3144 40.1936 44.7943 39.2011 46.185 39.0696C47.5427 38.941 48.6484 39.5995 49.4698 41.0276C49.5892 41.2352 49.7044 41.4639 49.8125 41.7083C49.9691 42.2392 50.1363 42.7387 50.3105 43.195C50.9949 46.0652 50.4684 49.6844 48.8625 53.137C47.9157 55.1726 46.649 57.042 45.1937 58.5578C41.9309 60.0383 38.3101 60.8633 34.5 60.8633C20.182 60.8633 8.53343 49.2149 8.53343 34.8968C8.53343 20.5786 20.182 8.92991 34.5 8.92991C48.818 8.92991 60.4666 20.5785 60.4666 34.8965C60.4666 40.1579 58.8921 45.0576 56.1919 49.1524ZM28.2619 21.2347H22.423C21.8729 21.2347 21.4269 21.6807 21.4269 22.2308V32.0799C21.4269 32.63 21.8729 33.076 22.423 33.076H28.2619C31.5266 33.076 34.1826 30.42 34.1826 27.1554C34.1826 23.8907 31.5266 21.2347 28.2619 21.2347ZM28.2619 31.0838H23.4191V23.2269H28.2619C30.4281 23.2269 32.1904 24.9892 32.1904 27.1554C32.1904 29.3215 30.4281 31.0838 28.2619 31.0838Z" fill="#F7F7F7"/>
</svg>
