<svg width="80" height="81" viewBox="0 0 80 81" fill="none" xmlns="http://www.w3.org/2000/svg">
<path d="M74.6721 39.1223C69.3459 39.1223 64.4021 36.4771 61.4472 32.0441L60.3871 30.454L59.327 32.0441C56.3721 36.4771 51.4282 39.1223 46.1021 39.1223H41.2742V59.5553C41.2742 64.494 43.4977 69.1359 47.2132 72.2513H20.8871V67.1545H37.4516V44.2191H10.6935V54.4126H3.04839V3.44487H59.1129V26.3804H61.6613V0.896484H0.5V56.2143L19.0854 74.7997H51.1301L60.3871 80.0889L71.154 73.9371C76.3018 70.9962 79.5 65.4841 79.5 59.5553V39.1223H74.6721ZM18.3387 70.4496L4.8501 56.961H18.3387V70.4496ZM13.2419 54.4126V46.7675H34.9032V64.6062H20.8871V54.4126H13.2419ZM76.9516 59.5553C76.9516 64.573 74.2452 69.2353 69.89 71.7251L60.3871 77.1557L50.8842 71.7251C46.529 69.2353 43.8226 64.573 43.8226 59.5553V41.6707H46.1021C51.6831 41.6707 56.9022 39.1669 60.3871 34.8945C63.872 39.1669 69.0911 41.6707 74.6721 41.6707H76.9516V59.5553Z" fill="#F7F7F7"/>
<path d="M71.8549 51.8643V59.5553C71.8549 62.7484 70.1322 65.716 67.3608 67.2998L68.6248 69.5118C72.1888 67.4757 74.4033 63.6607 74.4033 59.5553V51.8643H71.8549Z" fill="#F7F7F7"/>
<path d="M8.14502 5.99329V13.6384H54.016V5.99329H8.14502ZM51.4676 11.0901H10.6934V8.54167H51.4676V11.0901Z" fill="#F7F7F7"/>
<path d="M70.954 44.5924L54.0162 61.5303L49.8203 57.3343L48.0186 59.1361L54.0162 65.1337L72.7557 46.3941L70.954 44.5924Z" fill="#F7F7F7"/>
<path d="M32.3546 49.3158H15.79V51.8642H32.3546V49.3158Z" fill="#F7F7F7"/>
<path d="M32.3544 54.4126H23.4351V56.961H32.3544V54.4126Z" fill="#F7F7F7"/>
<path d="M32.3544 59.5094H23.4351V62.0578H32.3544V59.5094Z" fill="#F7F7F7"/>
<path d="M48.9192 18.7352H8.14502V21.2836H48.9192V18.7352Z" fill="#F7F7F7"/>
<path d="M48.9192 23.8319H8.14502V26.3803H48.9192V23.8319Z" fill="#F7F7F7"/>
<path d="M48.9192 28.9287H8.14502V31.4771H48.9192V28.9287Z" fill="#F7F7F7"/>
<path d="M32.3547 34.0255H8.14502V36.5739H32.3547V34.0255Z" fill="#F7F7F7"/>
<path d="M32.3547 39.1223H8.14502V41.6707H32.3547V39.1223Z" fill="#F7F7F7"/>
<path d="M54.0162 18.7352H51.4678V21.2836H54.0162V18.7352Z" fill="#F7F7F7"/>
<path d="M54.0162 23.8319H51.4678V26.3803H54.0162V23.8319Z" fill="#F7F7F7"/>
<path d="M54.0162 28.9287H51.4678V31.4771H54.0162V28.9287Z" fill="#F7F7F7"/>
<path d="M37.4517 34.0255H34.9033V36.5739H37.4517V34.0255Z" fill="#F7F7F7"/>
<path d="M37.4517 39.1223H34.9033V41.6707H37.4517V39.1223Z" fill="#F7F7F7"/>
</svg>
