<svg width="25" height="16" viewBox="0 0 25 16" fill="none" xmlns="http://www.w3.org/2000/svg">
<path d="M23.1365 15.5H19.9456C19.5657 15.5 19.1858 15.2695 18.9579 14.9622L18.654 14.4629C18.4641 14.2324 16.7167 12.1966 15.653 11.5436C15.2351 11.3132 15.0832 11.3516 15.0832 11.3516C15.0832 11.3516 15.0452 11.4668 15.0452 11.5052V13.541C15.0452 14.6165 14.1715 15.4616 13.1458 15.4616H12.3861C12.1962 15.4616 7.94158 15.3848 4.56071 10.276C1.9016 6.28125 1.02789 3.66927 0.723993 2.17122C0.648018 1.82552 0.76198 1.47982 0.951917 1.21094C1.17984 0.942057 1.48374 0.788412 1.82563 0.788412H4.52272C5.01656 0.788412 5.43442 1.0957 5.58637 1.59505C5.89027 2.47852 6.65001 4.74479 7.56171 6.20443C8.89127 8.43229 9.42309 8.62435 9.57504 8.62435C9.689 8.43229 9.65101 7.66406 9.65101 7.16471C9.65101 6.93425 9.65101 6.74219 9.65101 6.51172C9.65101 6.35807 9.65101 6.16602 9.65101 5.97396C9.65101 5.01367 9.689 3.70768 9.30913 3.0931L8.54938 1.97917C8.39743 1.7487 8.35944 1.44141 8.51139 1.17253C8.62535 0.903646 8.89127 0.75 9.19516 0.75H13.5257C14.1715 0.75 14.6653 1.28776 14.6653 1.90234V7.43359C14.6653 7.47201 14.7033 7.51042 14.7033 7.51042C14.7033 7.51042 14.8553 7.51042 15.2731 7.1263C16.1468 6.24284 17.2485 4.59115 18.3501 2.32487L18.73 1.44141C18.9199 1.01888 19.3378 0.75 19.7936 0.75H22.6047C22.9846 0.75 23.3264 0.942057 23.5544 1.24935C23.7823 1.55664 23.8203 1.97917 23.6683 2.32487L23.3644 3.13151V3.16992C23.3264 3.24674 22.3008 5.28255 21.2371 6.7806C20.4014 7.93294 20.0595 8.4707 20.1355 8.66276C20.2115 8.77799 20.7053 9.35417 21.1992 9.8151C22.1109 10.7754 23.2505 12.0046 23.6683 12.8112C23.8583 13.1569 24.0482 13.4642 24.1622 13.7331C24.3521 14.0788 24.3521 14.5013 24.1242 14.8854C23.8963 15.3079 23.5544 15.5 23.1365 15.5ZM15.1592 10.5833C15.4251 10.5833 15.729 10.6986 16.0709 10.8906C17.3244 11.6204 19.2238 13.8867 19.2998 14.002L19.3378 14.0404L19.6417 14.5397C19.7176 14.6549 19.8316 14.7318 19.9836 14.7318H23.1365C23.3264 14.7318 23.4404 14.6165 23.4784 14.5397C23.5164 14.5013 23.5924 14.3477 23.4784 14.1556C23.3264 13.8867 23.1745 13.5794 22.9846 13.2337C22.6047 12.5423 21.4651 11.3132 20.6293 10.3913C19.7936 9.4694 19.4897 9.16211 19.4138 8.97005C19.1858 8.39388 19.5277 7.93294 20.6293 6.39648C21.617 5.01367 22.5667 3.13151 22.6807 2.90104L22.9846 2.0944C23.0225 1.97917 23.0225 1.82552 22.9466 1.7487C22.8706 1.63346 22.7566 1.59505 22.6427 1.59505H19.8316C19.6797 1.59505 19.5277 1.67188 19.4897 1.82552L19.1099 2.7474C18.2741 4.39909 17.0585 6.58854 15.8809 7.7793C15.3871 8.27865 14.9312 8.43229 14.5514 8.31706C14.0955 8.16341 13.9816 7.66406 13.9816 7.62565C13.9816 7.58724 13.9816 7.58724 13.9816 7.54883V1.97917C13.9816 1.7487 13.7916 1.59505 13.6017 1.59505H9.19516L9.95491 2.70898C10.4487 3.51562 10.4487 4.93685 10.4108 6.05078C10.4108 6.24284 10.4108 6.39648 10.4108 6.55013C10.4108 6.74219 10.4108 6.97266 10.4108 7.16471C10.4487 8.24023 10.4487 9.23893 9.76497 9.39258C9.00523 9.54622 8.20749 8.73958 6.91593 6.62695C6.04222 5.12891 5.28247 3.01628 4.9026 1.86393C4.86461 1.71029 4.71266 1.59505 4.52272 1.59505H1.86361C1.74965 1.59505 1.63569 1.63346 1.55971 1.7487C1.48374 1.82552 1.48374 1.94076 1.48374 2.05599C1.74965 3.47721 2.62336 5.97396 5.2065 9.89193C8.35944 14.6549 12.3481 14.7318 12.3861 14.7318H13.1458C13.7916 14.7318 14.2855 14.194 14.2855 13.5794V11.5436C14.2855 11.5052 14.2855 10.9674 14.7033 10.6986C14.8553 10.6217 15.0072 10.5833 15.1592 10.5833Z" fill="white" stroke="white" stroke-width="0.8"/>
</svg>
