<svg width="80" height="73" viewBox="0 0 80 73" fill="none" xmlns="http://www.w3.org/2000/svg">
<path d="M61.4634 53.9373C65.3021 53.9373 68.4251 50.8143 68.4251 46.9758C68.4251 43.1371 65.3021 40.0142 61.4634 40.0142C57.6248 40.0142 54.502 43.1371 54.502 46.9758C54.502 50.8143 57.6248 53.9373 61.4634 53.9373ZM61.4634 42.3307C64.0247 42.3307 66.1084 44.4144 66.1084 46.9757C66.1084 49.5367 64.0247 51.6204 61.4634 51.6204C58.9024 51.6204 56.8187 49.5367 56.8187 46.9757C56.8187 44.4144 58.9024 42.3307 61.4634 42.3307Z" fill="#F7F7F7"/>
<path d="M49.9436 18.649C50.5835 18.649 51.102 18.1304 51.102 17.4906C51.102 16.8509 50.5835 16.3323 49.9436 16.3323H30.134C29.4941 16.3323 28.9756 16.8509 28.9756 17.4906C28.9756 18.1304 29.4941 18.649 30.134 18.649H49.9436Z" fill="#F7F7F7"/>
<path d="M46.1498 41.5179C46.1498 40.878 45.6313 40.3595 44.9914 40.3595H35.0866C34.4467 40.3595 33.9282 40.878 33.9282 41.5179C33.9282 42.1577 34.4467 42.6762 35.0866 42.6762H44.9914C45.6313 42.6762 46.1498 42.1577 46.1498 41.5179Z" fill="#F7F7F7"/>
<path d="M19.0718 22.2869C19.0718 22.9266 19.5903 23.4453 20.2301 23.4453H59.8493C60.4892 23.4453 61.0077 22.9266 61.0077 22.2869C61.0077 21.6472 60.4892 21.1285 59.8493 21.1285H20.2301C19.5904 21.1285 19.0718 21.6472 19.0718 22.2869Z" fill="#F7F7F7"/>
<path d="M20.2301 28.2414H59.8493C60.4892 28.2414 61.0077 27.7229 61.0077 27.083C61.0077 26.4433 60.4892 25.9247 59.8493 25.9247H20.2301C19.5903 25.9247 19.0718 26.4433 19.0718 27.083C19.0718 27.7228 19.5904 28.2414 20.2301 28.2414Z" fill="#F7F7F7"/>
<path d="M20.2301 33.0376H59.8493C60.4892 33.0376 61.0077 32.5191 61.0077 31.8792C61.0077 31.2393 60.4892 30.7208 59.8493 30.7208H20.2301C19.5903 30.7208 19.0718 31.2393 19.0718 31.8792C19.0718 32.5191 19.5904 33.0376 20.2301 33.0376Z" fill="#F7F7F7"/>
<path d="M0.5 6.92616V48.9238C0.5 52.2485 3.20501 54.9535 6.52967 54.9535H53.084C53.1634 54.9881 53.2433 55.0201 53.3231 55.0503V70.2983C53.3231 71.1247 53.7792 71.8736 54.5136 72.253C54.8332 72.4181 55.1796 72.4996 55.5243 72.4996C55.9716 72.4996 56.416 72.3625 56.7965 72.0924L59.2183 70.3736H59.2184L61.4632 68.7807L66.1298 72.0924C66.8039 72.571 67.679 72.6318 68.4129 72.253C69.1472 71.8736 69.6032 71.1246 69.6032 70.2983V55.0505C69.6833 55.0202 69.7631 54.9881 69.8426 54.9535H73.5483C76.873 54.9535 79.578 52.2485 79.578 48.9238V30.6278C79.578 29.988 79.0595 29.4695 78.4196 29.4695C77.7798 29.4695 77.2613 29.988 77.2613 30.6278V48.9238C77.2613 50.9712 75.5957 52.6368 73.5483 52.6368H71.6208C71.737 51.7535 71.5612 50.7788 71.7146 50.3064C71.9382 49.617 73.3931 48.5516 73.3931 46.9758C73.3931 45.9416 72.7775 45.1471 72.2829 44.5089C71.7848 43.8661 71.7189 43.7293 71.6796 43.4894C71.9929 43.423 72.3127 43.3884 72.6372 43.3884C73.9914 43.3981 74.9445 42.342 74.9445 41.1362V14.7138C74.9445 13.4499 73.9134 12.4479 72.6794 12.4614C70.0359 12.4709 67.995 10.3521 68.0132 7.79539C68.0242 6.54436 67.011 5.5301 65.7607 5.5301H14.3173C13.1385 5.5301 12.06 6.44907 12.065 7.83725C12.0653 10.3617 10.0363 12.4709 7.39876 12.4614C6.15761 12.4482 5.13346 13.4558 5.13346 14.7138V41.1362C5.13346 42.3276 6.07142 43.3978 7.44154 43.3884C9.95318 43.3887 12.0744 45.4191 12.0648 48.0544C12.0538 49.3058 13.067 50.3199 14.3173 50.3199H37.3362C37.976 50.3199 38.4945 49.8014 38.4945 49.1615C38.4945 48.5216 37.976 48.0032 37.3362 48.0032H14.3817C14.3767 44.1833 11.2702 41.0768 7.45019 41.0717V14.7782C11.2793 14.7732 14.3767 11.677 14.3817 7.84667H65.6962C65.6986 9.69758 66.4204 11.4371 67.729 12.7458C69.0378 14.0543 70.7771 14.7759 72.6278 14.7782V41.0717C72.2802 41.0721 71.9356 41.0982 71.5956 41.1497C71.3028 39.475 70.051 39.009 68.8044 38.6426C67.7451 38.3316 67.7374 38.3168 67.1342 37.431C66.6825 36.7675 66.1203 35.9418 65.1503 35.6269C64.2124 35.3229 63.2894 35.6497 62.5476 35.9131C61.483 36.2902 61.4433 36.2902 60.3788 35.9131C59.7791 35.7002 59.0607 35.4457 58.3118 35.5171H20.2294C19.5895 35.5171 19.0711 36.0355 19.0711 36.6754C19.0711 37.3153 19.5895 37.8338 20.2294 37.8338H55.5104C55.3767 38.0154 55.2463 38.1716 55.1286 38.2573C54.4254 38.7691 52.1666 38.7066 51.4762 40.5961C51.0659 41.7189 51.4106 43.0335 51.212 43.6451C50.9446 44.4695 48.8835 45.8631 49.7382 48.0033H42.7419C42.102 48.0033 41.5835 48.5218 41.5835 49.1617C41.5835 49.8016 42.102 50.32 42.7419 50.32H51.2154C51.3624 50.801 51.1897 51.7566 51.3057 52.6369H6.52967C4.4823 52.6369 2.81673 50.9714 2.81673 48.924V6.92616C2.81673 4.87879 4.4823 3.21321 6.52967 3.21321H73.5483C75.5957 3.21321 77.2613 4.87879 77.2613 6.92616V25.2221C77.2613 25.8619 77.7798 26.3805 78.4196 26.3805C79.0595 26.3805 79.578 25.8619 79.578 25.2221V6.92616C79.578 3.60134 76.873 0.896484 73.5483 0.896484H6.52967C3.20501 0.896484 0.5 3.60134 0.5 6.92616H0.5ZM57.3896 68.8306L55.6399 70.0723V56.2986C56.0627 56.906 56.5534 57.7283 57.3896 58.1612V68.8306ZM63.2203 67.1864L62.7369 66.8434C62.6894 66.8096 62.6407 66.7779 62.5911 66.7483C62.2444 66.5412 61.8536 66.4377 61.4632 66.4377C61.0168 66.4377 60.5706 66.5728 60.1899 66.8433L59.7063 67.1864V58.2618C62.0305 57.5839 60.8049 57.5603 63.2203 58.2618V67.1864ZM67.2865 70.0723L65.5371 68.8307V58.1612C66.3723 57.7285 66.8624 56.9077 67.2865 56.2986V70.0723ZM52.4749 45.928C53.4544 44.6638 53.6317 44.1687 53.5869 42.4898C53.555 41.2893 53.579 41.2687 54.1992 41.0466C55.9206 40.4302 56.413 40.6352 57.707 38.7347C57.9574 38.3673 58.268 37.9115 58.484 37.8335C58.7375 37.8335 58.7325 37.7868 59.6044 38.0962C61.1873 38.6579 61.7471 38.655 63.3218 38.0962C63.7113 37.958 64.2453 37.7683 64.4346 37.8302C64.651 37.9004 64.9659 38.3629 65.2192 38.7347C66.1454 40.0945 66.5703 40.4006 68.1511 40.8652C69.3997 41.232 69.3737 41.1989 69.3393 42.4898C69.2956 44.1685 69.4695 44.661 70.4513 45.9278C71.2659 46.9792 71.2667 46.9714 70.4513 48.0231C69.3326 49.4662 69.3146 49.8992 69.3448 51.7096C69.3659 52.9773 69.2801 52.6624 67.4918 53.2924C66.3365 53.6978 65.9132 54.1969 65.2191 55.2159C64.4623 56.3276 64.5046 56.2728 63.3206 55.8536C61.12 55.0749 60.8099 55.5213 59.0377 56.0431C58.3325 56.2487 58.4111 56.1906 57.454 54.8512C55.9554 52.7543 54.3757 53.3213 53.706 52.6499C53.544 52.4786 53.5781 51.7748 53.5866 51.461C53.622 50.1242 53.5489 49.5124 52.8205 48.4829C51.7311 46.9614 51.5079 47.1752 52.4749 45.928Z" fill="#F7F7F7"/>
</svg>
