<svg width="13" height="14" viewBox="0 0 13 14" fill="none" xmlns="http://www.w3.org/2000/svg">
<path d="M12.6591 10.2746L10.8411 8.32084C10.1918 7.62307 9.08802 7.90221 8.82831 8.80927C8.63352 9.43729 7.98423 9.78617 7.39987 9.64659C6.1013 9.29771 4.34822 7.48352 4.02358 6.01822C3.82879 5.3902 4.21836 4.69244 4.80272 4.48313C5.6468 4.20403 5.90651 3.01783 5.25722 2.32007L3.43922 0.366326C2.91979 -0.122109 2.14064 -0.122109 1.68614 0.366326L0.452493 1.69208C-0.781154 3.08761 0.582351 6.78576 3.634 10.0652C6.68566 13.3447 10.1269 14.8798 11.4255 13.4843L12.6591 12.1585C13.1136 11.6003 13.1136 10.763 12.6591 10.2746Z" fill="white"/>
</svg>
