<svg width="69" height="81" viewBox="0 0 69 81" fill="none" xmlns="http://www.w3.org/2000/svg">
<path d="M54.7072 18.7197L58.0752 12.8612C58.2291 12.5933 58.2703 12.2753 58.1898 11.977C58.1093 11.6788 57.9136 11.4247 57.6458 11.2707L52.8837 8.53518C52.6158 8.38132 52.2977 8.34018 51.9994 8.42084C51.7012 8.50149 51.4472 8.69732 51.2933 8.96525L47.9306 14.8178C44.8987 13.5099 41.6911 12.6544 38.4106 12.2786V8.7176H40.7739C41.0829 8.7176 41.3793 8.59485 41.5977 8.37636C41.8162 8.15787 41.939 7.86154 41.939 7.55255V2.06153C41.9391 1.90851 41.909 1.75697 41.8505 1.61558C41.792 1.47419 41.7061 1.34572 41.5979 1.23752C41.4897 1.12932 41.3613 1.04351 41.2199 0.98499C41.0785 0.926472 40.927 0.896397 40.7739 0.896485H28.2261C28.073 0.896397 27.9215 0.926472 27.7801 0.98499C27.6387 1.04351 27.5103 1.12932 27.4021 1.23752C27.2939 1.34572 27.208 1.47419 27.1495 1.61558C27.091 1.75697 27.0609 1.90851 27.061 2.06153V7.55255C27.061 7.86154 27.1838 8.15787 27.4023 8.37636C27.6207 8.59485 27.9171 8.7176 28.2261 8.7176H30.5894V12.2753C27.3089 12.6511 24.1013 13.5066 21.0694 14.8144L17.7067 8.96192C17.6306 8.82919 17.529 8.71277 17.4079 8.61931C17.2867 8.52585 17.1483 8.45718 17.0006 8.41724C16.8529 8.3773 16.6988 8.36686 16.547 8.38653C16.3953 8.4062 16.2489 8.45558 16.1163 8.53185L11.3542 11.2674C11.0864 11.4214 10.8907 11.6754 10.8102 11.9737C10.7297 12.2719 10.7709 12.59 10.9248 12.8578L14.2928 18.7197C8.53736 22.973 4.27078 28.934 2.10075 35.7536C-0.0692877 42.5732 -0.0321171 49.9036 2.20696 56.7009C4.44605 63.4981 8.77286 69.4155 14.5711 73.6103C20.3694 77.805 27.3435 80.0632 34.5 80.0632C41.6565 80.0632 48.6306 77.805 54.4289 73.6103C60.2271 69.4155 64.5539 63.4981 66.793 56.7009C69.0321 49.9036 69.0693 42.5732 66.8992 35.7536C64.7292 28.934 60.4626 22.973 54.7072 18.7197ZM52.7333 11.1302L55.4741 12.7087L52.7792 17.3995C51.8916 16.8323 50.9788 16.3059 50.041 15.8204L52.7333 11.1302ZM29.3911 3.22657H39.6089V6.38751H29.3911V3.22657ZM32.9195 8.7176H36.0805V12.0842C35.5565 12.0596 35.0326 12.043 34.5 12.043C33.9674 12.043 33.4435 12.0589 32.9195 12.0836V8.7176ZM13.5259 12.7087L16.2667 11.1342L18.959 15.8204C18.0203 16.305 17.1075 16.8314 16.2208 17.3995L13.5259 12.7087ZM34.5 77.7135C28.2363 77.7135 22.1132 75.8561 16.9051 72.3761C11.697 68.8962 7.63776 63.95 5.24075 58.163C2.84375 52.3761 2.21662 46.0083 3.43867 39.8649C4.66071 33.7215 7.67704 28.0785 12.1062 23.6494C16.5354 19.2203 22.1785 16.2041 28.3219 14.9822C34.4653 13.7603 40.8331 14.3875 46.62 16.7846C52.4069 19.1818 57.353 23.2411 60.8329 28.4493C64.3127 33.6574 66.17 39.7806 66.1699 46.0443C66.1602 54.4406 62.8204 62.4903 56.8833 68.4274C50.9461 74.3644 42.8963 77.704 34.5 77.7135Z" fill="#F7F7F7"/>
<path d="M57.4074 59.1515C59.7114 55.1418 60.918 50.5957 60.9053 45.9711C60.8927 41.3466 59.6614 36.8072 57.3355 32.8101C57.32 32.7703 57.3022 32.7314 57.2822 32.6936C57.2615 32.6626 57.2393 32.6326 57.2156 32.6038C54.9234 28.7476 51.6929 25.534 47.8247 23.2621C47.7929 23.2359 47.7596 23.2117 47.7248 23.1895C47.6871 23.1699 47.6482 23.1526 47.6083 23.1376C43.599 20.8334 39.0531 19.6268 34.4288 19.6393C29.8045 19.6518 25.2652 20.883 21.2683 23.2088C21.2279 23.2248 21.1883 23.2431 21.1498 23.2634C21.1192 23.2841 21.0896 23.3063 21.0613 23.33C17.2045 25.6221 13.9903 28.8527 11.7176 32.7209C11.6624 32.7839 11.6203 32.8572 11.5938 32.9366C9.28971 36.9462 8.08318 41.4922 8.0958 46.1166C8.10842 50.741 9.33975 55.2804 11.6657 59.2773C11.6813 59.3173 11.699 59.3564 11.719 59.3945C11.7336 59.4198 11.7556 59.4384 11.7715 59.461C14.064 63.3264 17.2988 66.5477 21.1738 68.824C21.2064 68.8505 21.2404 68.8752 21.2757 68.8979C21.3049 68.9145 21.3369 68.9212 21.3669 68.9358C25.3835 71.2493 29.94 72.4607 34.5753 72.4475C39.2105 72.4343 43.76 71.1969 47.7634 68.8606C47.7921 68.8466 47.8227 68.8406 47.8507 68.824C47.8786 68.8074 47.9092 68.7807 47.9392 68.7574C51.8047 66.4603 55.0247 63.2206 57.2982 59.3412C57.3162 59.3152 57.3388 59.2959 57.3548 59.268C57.3749 59.2303 57.3924 59.1914 57.4074 59.1515ZM47.6576 66.1897L46.1603 63.6379C46.0041 63.3713 45.7483 63.1776 45.4493 63.0996C45.1503 63.0216 44.8325 63.0655 44.5659 63.2218C44.2993 63.3781 44.1057 63.6338 44.0276 63.9328C43.9496 64.2319 43.9935 64.5496 44.1498 64.8162L45.6491 67.374C42.5588 68.9983 39.1502 69.9259 35.663 70.0916V67.119C35.663 66.81 35.5402 66.5137 35.3217 66.2952C35.1032 66.0767 34.8069 65.954 34.4979 65.954C34.1889 65.954 33.8926 66.0767 33.6741 66.2952C33.4556 66.5137 33.3329 66.81 33.3329 67.119V70.0916C29.8922 69.9265 26.5279 69.0194 23.4706 67.4326L24.9552 64.8675C25.1051 64.6004 25.1438 64.285 25.0628 63.9895C24.9819 63.6941 24.7879 63.4424 24.5228 63.289C24.2577 63.1356 23.9428 63.0927 23.6463 63.1697C23.3498 63.2467 23.0956 63.4374 22.9387 63.7005L21.4561 66.2629C18.6235 64.4284 16.2048 62.0231 14.3546 59.2007L16.9091 57.7041C17.1742 57.5472 17.3664 57.2917 17.4436 56.9934C17.5209 56.6952 17.4768 56.3785 17.3211 56.1126C17.1653 55.8468 16.9106 55.6534 16.6127 55.5749C16.3148 55.4964 15.9979 55.5391 15.7314 55.6936L13.1736 57.1929C11.549 54.1026 10.6212 50.694 10.4554 47.2068H13.4279C13.7369 47.2068 14.0332 47.084 14.2517 46.8655C14.4702 46.647 14.593 46.3507 14.593 46.0417C14.593 45.7327 14.4702 45.4364 14.2517 45.2179C14.0332 44.9994 13.7369 44.8767 13.4279 44.8767H10.4554C10.6196 41.4353 11.526 38.0701 13.1123 35.0117L15.6781 36.4957C15.945 36.6425 16.2589 36.6789 16.5524 36.5972C16.8458 36.5154 17.0956 36.3219 17.2481 36.0582C17.4007 35.7945 17.4438 35.4815 17.3684 35.1863C17.2929 34.8912 17.1049 34.6373 16.8445 34.4791L14.2827 32.9965C16.1171 30.165 18.5219 27.7473 21.3436 25.8978L22.8408 28.4522C22.9977 28.7174 23.2532 28.9096 23.5515 28.9868C23.8498 29.064 24.1665 29.0199 24.4323 28.8642C24.6982 28.7085 24.8915 28.4538 24.97 28.1559C25.0486 27.8579 25.0059 27.541 24.8513 27.2745L23.3521 24.7167C26.4422 23.092 29.8509 22.1644 33.3382 21.9992V24.971C33.3382 25.28 33.4609 25.5764 33.6794 25.7949C33.8979 26.0133 34.1942 26.1361 34.5032 26.1361C34.8122 26.1361 35.1086 26.0133 35.3271 25.7949C35.5455 25.5764 35.6683 25.28 35.6683 24.971V21.9992C39.1096 22.1632 42.4748 23.0694 45.5332 24.6555L44.046 27.2219C43.9669 27.3544 43.915 27.5013 43.8931 27.6541C43.8713 27.8068 43.8801 27.9624 43.9189 28.1117C43.9577 28.261 44.0257 28.4012 44.1191 28.524C44.2125 28.6468 44.3294 28.7499 44.4629 28.8271C44.5965 28.9044 44.744 28.9544 44.897 28.9742C45.0501 28.994 45.2055 28.9832 45.3543 28.9424C45.5031 28.9017 45.6423 28.8318 45.7639 28.7367C45.8855 28.6417 45.987 28.5235 46.0625 28.389L47.5451 25.8239C50.3778 27.6588 52.7965 30.0645 54.6465 32.8874L52.0921 34.3839C51.9594 34.4609 51.8431 34.5633 51.7501 34.6853C51.6571 34.8073 51.589 34.9465 51.5499 35.0949C51.5108 35.2432 51.5014 35.3979 51.5222 35.5499C51.543 35.7019 51.5937 35.8483 51.6712 35.9807C51.7488 36.1131 51.8517 36.2288 51.9741 36.3213C52.0965 36.4138 52.236 36.4812 52.3845 36.5197C52.5331 36.5581 52.6877 36.5669 52.8396 36.5454C52.9916 36.5239 53.1377 36.4726 53.2698 36.3945L55.8282 34.8952C57.4522 37.9856 58.3798 41.3942 58.5458 44.8813H55.5732C55.2643 44.8813 54.9679 45.0041 54.7494 45.2226C54.5309 45.441 54.4082 45.7374 54.4082 46.0464C54.4082 46.3554 54.5309 46.6517 54.7494 46.8702C54.9679 47.0887 55.2643 47.2114 55.5732 47.2114H58.5458C58.3811 50.6519 57.4748 54.0161 55.8888 57.0737L53.3237 55.5891C53.0562 55.4343 52.7382 55.3922 52.4396 55.4719C52.141 55.5516 51.8863 55.7467 51.7316 56.0142C51.5768 56.2817 51.5347 56.5997 51.6144 56.8983C51.6941 57.1968 51.8892 57.4515 52.1567 57.6063L54.7184 59.0889C52.8843 61.9211 50.4795 64.3396 47.6576 66.1897Z" fill="#F7F7F7"/>
<path d="M52.0716 46.0443C52.0716 45.7353 51.9489 45.439 51.7304 45.2205C51.5119 45.002 51.2156 44.8793 50.9066 44.8793H39.6889C39.4664 43.8971 38.9705 42.9979 38.2585 42.2857C37.5464 41.5735 36.6473 41.0775 35.6651 40.8549V29.6378C35.6651 29.3288 35.5424 29.0325 35.3239 28.814C35.1054 28.5955 34.8091 28.4728 34.5001 28.4728C34.1911 28.4728 33.8948 28.5955 33.6763 28.814C33.4578 29.0325 33.3351 29.3288 33.3351 29.6378V40.8549C32.4055 41.063 31.549 41.517 30.8548 42.1692C30.1606 42.8215 29.6543 43.6481 29.3887 44.5629C29.1231 45.4777 29.108 46.4469 29.345 47.3695C29.5819 48.2921 30.0622 49.1342 30.7357 49.8078C31.4092 50.4813 32.2512 50.9617 33.1738 51.1988C34.0964 51.4358 35.0657 51.4208 35.9804 51.1553C36.8952 50.8898 37.722 50.3836 38.3743 49.6895C39.0266 48.9954 39.4806 48.1389 39.6889 47.2094H50.9066C51.2155 47.2092 51.5118 47.0864 51.7302 46.8679C51.9487 46.6495 52.0715 46.3533 52.0716 46.0443ZM34.5001 49.0355C33.9083 49.0356 33.3298 48.8602 32.8377 48.5315C32.3456 48.2029 31.962 47.7356 31.7355 47.1889C31.5089 46.6422 31.4496 46.0406 31.5651 45.4601C31.6805 44.8797 31.9654 44.3466 32.3839 43.9281C32.8023 43.5096 33.3355 43.2247 33.9159 43.1093C34.4963 42.9939 35.098 43.0532 35.6447 43.2797C36.1914 43.5062 36.6586 43.8898 36.9873 44.3819C37.316 44.874 37.4914 45.4525 37.4913 46.0443C37.49 46.8372 37.1745 47.5973 36.6138 48.158C36.0531 48.7187 35.293 49.0343 34.5001 49.0355Z" fill="#F7F7F7"/>
</svg>
