<svg width="175" height="114" viewBox="0 0 175 114" fill="none" xmlns="http://www.w3.org/2000/svg">
<mask id="mask0" mask-type="alpha" maskUnits="userSpaceOnUse" x="0" y="0" width="175" height="114">
<rect x="0.5" y="0.458984" width="174" height="112.577" fill="#C4C4C4"/>
</mask>
<g mask="url(#mask0)">
<path fill-rule="evenodd" clip-rule="evenodd" d="M55.6829 66.1901V49.9683H59.9181L65.2845 62.0906L70.5712 49.9683H74.6285V66.1901H71.1361V56.7531L67.1067 66.1901H63.3839L59.3027 56.8045V66.1901H55.6829Z" fill="#0A0B09"/>
<path fill-rule="evenodd" clip-rule="evenodd" d="M88.6833 59.9093L85.7612 53.0332L82.906 59.9093H88.6833ZM80.2939 66.1901H76.1868L83.2466 49.9683H88.303L95.4132 66.1901H91.3592L89.9599 62.9587H81.6501L80.2939 66.1901Z" fill="#0A0B09"/>
<path fill-rule="evenodd" clip-rule="evenodd" d="M97.0522 66.1901V49.9683H112.249V53.2118H100.723V56.4337H110.605V59.5995H100.723V62.9452H112.277V66.1901H97.0522Z" fill="#0A0B09"/>
<path fill-rule="evenodd" clip-rule="evenodd" d="M118.952 57.4168H126.937V53.2118H118.952V57.4168ZM115.23 66.1901V49.9683H127.946C129.645 49.9683 130.631 50.9703 130.631 52.6888V58.1387C130.631 59.3924 129.542 60.5257 127.43 60.5257C127.311 60.5318 127.189 60.5257 127.063 60.5257L130.765 66.1901H126.68L123.17 60.6434H118.952V66.1901H115.23Z" fill="#0A0B09"/>
<path fill-rule="evenodd" clip-rule="evenodd" d="M137.327 66.2004H136.067C134.422 66.2004 133.63 65.2315 133.63 63.8208V61.7018H137.327V62.9568H145.182V59.6362C145.182 59.6362 137.61 59.6362 136.172 59.6362C134.733 59.6362 133.697 58.6504 133.697 57.2823V52.4664C133.697 51.009 134.825 49.9792 136.197 49.9792C137.569 49.9792 146.497 49.9792 146.497 49.9792C147.889 49.9792 148.852 51.0381 148.852 52.5692C148.852 54.0983 148.852 54.5049 148.852 54.5049H145.182V53.2228H137.327V56.4176H146.311C147.638 56.4176 148.852 57.3121 148.852 59.034V63.6639C148.852 65.241 147.994 66.2004 146.389 66.2004C144.784 66.2004 137.327 66.2004 137.327 66.2004Z" fill="#0A0B09"/>
<path fill-rule="evenodd" clip-rule="evenodd" d="M152.401 66.1988V49.9756H156.174V56.464L163.361 49.9756H168.47L159.896 57.5114L168.779 66.1988H163.489L156.174 58.8199V66.1988H152.401Z" fill="#0A0B09"/>
<path fill-rule="evenodd" clip-rule="evenodd" d="M40.457 72.2926C40.457 74.6113 38.6135 76.4908 36.3386 76.4908H10.3404C8.06482 76.4908 6.2207 74.6113 6.2207 72.2926V43.8659C6.2207 41.5472 8.06482 39.667 10.3404 39.667H36.3386C38.6135 39.667 40.457 41.5472 40.457 43.8659V72.2926Z" fill="#42B0D5"/>
<path fill-rule="evenodd" clip-rule="evenodd" d="M28.7973 57.1227L35.5531 48.4874L35.5319 48.4597L25.7683 53.2519L23.3566 42.4834H23.3227L20.911 53.2519L11.1475 48.4597L11.1262 48.4874L17.8827 57.1227L8.11841 61.9149L8.12704 61.9488H18.9634L16.5517 72.718L16.5822 72.7322L23.34 64.0969L30.0964 72.7322L30.127 72.7166L27.7166 61.9488H38.553L38.5609 61.9149L28.7973 57.1227Z" fill="#FFFFFE"/>
</g>
</svg>
