<svg width="36" height="36" viewBox="0 0 36 36" fill="none" xmlns="http://www.w3.org/2000/svg">
<rect x="1.12891" y="35.127" width="34" height="34" rx="17" transform="rotate(-90 1.12891 35.127)" stroke="#8B8D9C"/>
<path d="M18.1281 12.8417L18.8352 12.1346L18.1281 11.4275L17.421 12.1346L18.1281 12.8417ZM14.778 14.7776C14.3875 15.1681 14.3875 15.8013 14.778 16.1918C15.1685 16.5824 15.8017 16.5824 16.1922 16.1918L14.778 14.7776ZM20.0641 16.1918C20.4546 16.5824 21.0877 16.5824 21.4783 16.1918C21.8688 15.8013 21.8688 15.1681 21.4783 14.7776L20.0641 16.1918ZM19.1281 23.4138L19.1281 12.8417L17.1281 12.8417L17.1281 23.4138L19.1281 23.4138ZM17.421 12.1346L14.778 14.7776L16.1922 16.1918L18.8352 13.5488L17.421 12.1346ZM17.421 13.5488L20.0641 16.1918L21.4783 14.7776L18.8352 12.1346L17.421 13.5488Z" fill="#8B8D9C"/>
</svg>
