<svg width="175" height="114" viewBox="0 0 175 114" fill="none" xmlns="http://www.w3.org/2000/svg">
<mask id="mask0" mask-type="alpha" maskUnits="userSpaceOnUse" x="0" y="0" width="175" height="114">
<rect x="0.5" y="0.458984" width="174" height="112.577" fill="#C4C4C4"/>
</mask>
<g mask="url(#mask0)">
<path fill-rule="evenodd" clip-rule="evenodd" d="M53.2703 88.4601V87.3575H50.4652V88.4601H50.1375V86.0945H50.4652V87.1203H53.2703V86.0945H53.5942V88.4601H53.2703Z" fill="#201C26"/>
<path fill-rule="evenodd" clip-rule="evenodd" d="M54.6973 88.4601V86.0945H57.4915V86.3304H55.0198V87.1203H57.4262V87.3542H55.0198V88.2229H57.4915V88.4601H54.6973Z" fill="#201C26"/>
<path fill-rule="evenodd" clip-rule="evenodd" d="M63.1623 87.417V87.1222C63.1623 86.5599 62.8831 86.2768 61.9982 86.2768H61.0351V86.0667H60.7068V86.2768H59.7554C58.8647 86.2768 58.5854 86.5127 58.5854 87.1222V87.417C58.5854 88.0187 58.9009 88.2268 59.7554 88.2268H60.7068V88.4595H61.0351V88.2268H61.9982C62.8475 88.2268 63.1623 88.0297 63.1623 87.417ZM62.8333 87.417C62.8333 87.8726 62.6129 87.9929 61.9982 87.9929H61.0351V86.5133H61.9982C62.5819 86.5133 62.8333 86.6504 62.8333 87.1093V87.417ZM60.7068 87.9929H59.7554C59.14 87.9929 58.9054 87.8726 58.9054 87.4137V87.0989C58.9054 86.6465 59.1626 86.5133 59.7554 86.5133H60.7068V87.9929Z" fill="#201C26"/>
<path fill-rule="evenodd" clip-rule="evenodd" d="M65.6587 86.3304V88.4601H65.9851V86.3304H67.5279V86.0945H64.1274V86.3304H65.6587Z" fill="#201C26"/>
<path fill-rule="evenodd" clip-rule="evenodd" d="M71.6458 88.4608V86.0958H69.5193C68.7339 86.0958 68.4101 86.2903 68.4101 86.8281C68.4101 87.2728 68.7339 87.4803 69.3531 87.4803L68.2795 88.4614H68.7339L69.7442 87.4803H71.3168V88.4614H71.6458V88.4608ZM71.3168 87.2463H69.4165C68.911 87.2463 68.7346 87.1803 68.7346 86.8281C68.7346 86.461 68.9194 86.331 69.3842 86.331H71.3168V87.2463Z" fill="#201C26"/>
<path fill-rule="evenodd" clip-rule="evenodd" d="M75.9654 88.4601V87.3575H73.1621V88.4601H72.8357V86.0945H73.1621V87.1203H75.9654V86.0945H76.2931V88.4601H75.9654Z" fill="#201C26"/>
<path fill-rule="evenodd" clip-rule="evenodd" d="M80.9321 88.4608L79.2969 86.0958H78.7946L77.1606 88.4608H77.5213L77.9272 87.8674H80.1468L80.5489 88.4608H80.9321ZM79.9762 87.6257H78.1043L79.0377 86.2651L79.9762 87.6257Z" fill="#201C26"/>
<path fill-rule="evenodd" clip-rule="evenodd" d="M84.6613 88.4601V87.479H83.0893L82.0739 88.4601H81.626L82.6918 87.479C82.0739 87.479 81.754 87.2715 81.754 86.8268C81.754 86.289 82.0739 86.0945 82.8592 86.0945H84.9903V88.4595H84.6613V88.4601ZM84.6613 86.3304H82.7293C82.2659 86.3304 82.0739 86.4597 82.0739 86.8274C82.0739 87.1804 82.2523 87.2456 82.7603 87.2456H84.6613V86.3304Z" fill="#201C26"/>
<path fill-rule="evenodd" clip-rule="evenodd" d="M91.0466 88.4601H91.6199L89.3369 87.2204L91.5688 86.0945H90.9903L88.9976 87.1093H88.4676V86.0945H88.1399V88.4601H88.4676V87.3471H89.0112L91.0466 88.4601Z" fill="#201C26"/>
<path fill-rule="evenodd" clip-rule="evenodd" d="M95.8673 87.649C95.8673 88.1118 95.7129 88.2236 95.0497 88.2236H93.6684C93.0537 88.2236 92.8243 88.1047 92.8243 87.649V86.894C92.8243 86.4338 93.0757 86.3091 93.6684 86.3091H95.0497C95.6792 86.3091 95.8673 86.4261 95.8673 86.894V87.649ZM96.1912 87.649V86.9089C96.1912 86.2212 95.815 86.0667 95.0497 86.0667H93.6717C92.7752 86.0667 92.4966 86.3084 92.4966 86.9089V87.649C92.4966 88.2566 92.8146 88.4602 93.6717 88.4602H95.0497C95.8887 88.4602 96.1912 88.3225 96.1912 87.649Z" fill="#201C26"/>
<path fill-rule="evenodd" clip-rule="evenodd" d="M101.156 86.0945H101.858V88.4601H101.53V86.2864H101.349L99.645 88.4601H99.4776L97.7764 86.2864H97.5922V88.4601H97.2671V86.0945H97.9652L99.5655 88.1118L101.156 86.0945Z" fill="#201C26"/>
<path fill-rule="evenodd" clip-rule="evenodd" d="M103.359 88.4601V86.3304H106.155V88.4601H106.486V86.0945H103.028V88.4601H103.359Z" fill="#201C26"/>
<path fill-rule="evenodd" clip-rule="evenodd" d="M110.742 88.4608L110.341 87.8674H108.121L107.71 88.4608H107.349L108.987 86.0958H109.483L111.118 88.4608H110.742ZM109.234 86.2645L108.294 87.625H110.17L109.234 86.2645Z" fill="#201C26"/>
<path fill-rule="evenodd" clip-rule="evenodd" d="M115.511 88.4601V86.0945H115.186V87.1203H112.387V86.0945H112.055V88.4601H112.387V87.3575H115.186V88.4601H115.511Z" fill="#201C26"/>
<path fill-rule="evenodd" clip-rule="evenodd" d="M120.092 88.4601V86.0945H119.455L116.96 88.2759H116.931V86.0945H116.609V88.4601H117.139L119.641 86.2774H119.762V88.4601H120.092Z" fill="#201C26"/>
<path fill-rule="evenodd" clip-rule="evenodd" d="M124.039 87.2463H122.134C121.626 87.2463 121.456 87.1803 121.456 86.8281C121.456 86.461 121.635 86.331 122.099 86.331H124.039V87.2463ZM124.361 88.4608V86.0958H122.236C121.456 86.0958 121.128 86.2903 121.128 86.8281C121.128 87.2728 121.456 87.4803 122.073 87.4803L120.996 88.4614H121.456L122.461 87.4803H124.039V88.4614H124.361V88.4608Z" fill="#201C26"/>
<path fill-rule="evenodd" clip-rule="evenodd" d="M50.1091 91.9653C50.1091 91.9653 57.2165 91.8697 57.7859 92.251C58.3547 92.6272 58.9229 93.0111 59.0179 93.7654C59.1123 94.5243 58.6391 96.8899 56.8377 96.9862C55.0389 97.0806 52.957 96.8899 52.957 96.8899L52.8639 98.7857L50.0212 98.6913L50.1091 91.9653Z" fill="#201C26"/>
<path fill-rule="evenodd" clip-rule="evenodd" d="M53.0481 93.8586L52.9563 94.9975C52.9563 94.9975 55.2276 95.4693 55.7007 94.9975C56.1745 94.525 55.7945 93.7662 55.0389 93.7662C54.2826 93.7662 53.0481 93.8586 53.0481 93.8586Z" fill="white"/>
<path fill-rule="evenodd" clip-rule="evenodd" d="M59.0182 93.7652C59.7796 92.914 61.1046 91.5863 64.1308 91.7744C67.1629 91.9651 68.7769 93.1932 68.7769 94.6223C68.7769 96.0384 68.8667 97.9323 67.0672 98.4978C65.2697 99.0692 63.467 99.0692 62.237 98.8831C61.0051 98.6911 59.0181 97.5522 58.735 96.0391C58.45 94.5234 59.0182 93.7652 59.0182 93.7652Z" fill="#241C24"/>
<path fill-rule="evenodd" clip-rule="evenodd" d="M61.8619 95.5644C61.6887 94.3409 62.7112 93.5743 63.5638 93.5743C64.415 93.5743 65.8325 93.6706 65.7388 95.282C65.6463 96.8907 65.5552 96.7957 64.7033 97.0814C63.8501 97.3652 62.1444 97.6521 61.8619 95.5644Z" fill="white"/>
<path fill-rule="evenodd" clip-rule="evenodd" d="M78.9052 94.6234C78.434 93.7663 77.3953 92.153 75.7813 92.0618C74.1719 91.9662 71.9917 91.7755 70.9511 92.153C69.9066 92.5356 69.0611 93.4793 68.8692 94.3318C68.6811 95.187 68.4859 97.0814 69.7204 97.9333C70.9504 98.7859 72.9444 99.451 74.8357 99.0703C76.7263 98.6922 78.5277 97.9333 78.8121 96.3226C77.8671 96.3226 75.5939 96.3226 75.5939 96.3226C75.5939 96.3226 74.7374 97.4609 73.6994 97.3652C73.6994 97.3652 72.746 97.6522 72.0854 96.7066C71.4261 95.7545 71.5186 94.9032 72.1798 94.0494C72.8488 93.1943 74.6444 93.4786 74.835 93.8587C75.0231 94.2388 75.3075 94.8056 75.3075 94.8056L78.9052 94.6234Z" fill="#241C24"/>
<path fill-rule="evenodd" clip-rule="evenodd" d="M78.6247 92.1522H81.5624V94.4286H84.4936V91.9647H87.5276V98.7851H84.6837V96.5118H81.6574V98.7851H78.5291L78.6247 92.1522Z" fill="#241C24"/>
<path fill-rule="evenodd" clip-rule="evenodd" d="M88.4771 91.9647L96.9062 92.061V93.7655H91.7929V94.4286H96.0556V96.3218H91.6009V97.1782H97.0943V98.9751H88.5701L88.4771 91.9647Z" fill="#241C24"/>
<path fill-rule="evenodd" clip-rule="evenodd" d="M101.263 91.9647H104.2C104.2 91.9647 104.012 92.4398 104.395 92.3461C104.768 92.2511 107.326 92.1515 108.086 93.1036C108.842 94.0486 109.128 95.2805 108.367 96.1337C107.607 96.9869 106.945 97.3644 106.476 97.3644C105.998 97.3644 104.395 97.4594 104.395 97.4594V98.9751H101.263V97.3644C101.263 97.3644 99.2726 97.2694 98.6101 97.0806C97.9501 96.89 96.7156 96.1337 96.7156 94.9031C96.7156 93.6705 97.3787 92.6272 98.3295 92.5348C99.2726 92.4404 101.073 92.4404 101.073 92.4404L101.263 91.9647Z" fill="#241C24"/>
<path fill-rule="evenodd" clip-rule="evenodd" d="M101.262 94.0491L101.167 95.4691C101.167 95.4691 99.6531 95.6598 99.6531 95.0949C99.6531 94.5241 99.9388 93.9553 101.262 94.0491Z" fill="white"/>
<path fill-rule="evenodd" clip-rule="evenodd" d="M104.394 94.143L104.483 95.4693C104.483 95.4693 105.336 95.85 105.813 95.1862C106.281 94.5237 105.429 94.0486 104.394 94.143Z" fill="white"/>
<path fill-rule="evenodd" clip-rule="evenodd" d="M110.355 94.0488V99.0697H113.385V94.0488H116.13L116.704 93.2932L115.852 92.2513H107.895C107.897 92.2513 107.514 93.7657 108.366 93.8581C109.218 93.9551 110.355 94.0488 110.355 94.0488Z" fill="#241C24"/>
<path fill-rule="evenodd" clip-rule="evenodd" d="M119.163 92.2513V94.1432C119.163 94.1432 122.765 93.9551 123.429 94.3313C124.092 94.7113 124.754 95.2814 124.849 95.9407C124.943 96.6077 124.754 97.6516 124.092 98.2172C123.429 98.7853 122.674 99.1634 121.91 99.1634C121.154 99.1634 116.421 99.1634 116.421 99.1634V92.3463L119.163 92.2513Z" fill="#241C24"/>
<path fill-rule="evenodd" clip-rule="evenodd" d="M119.452 96.134V97.2696C119.452 97.2696 120.87 97.2696 121.343 97.2696C121.814 97.2696 122.48 96.2283 121.626 96.0396C120.775 95.8496 119.452 96.134 119.452 96.134Z" fill="white"/>
<path fill-rule="evenodd" clip-rule="evenodd" d="M68.0737 34.0906H72.9065V50.479L68.0737 46.2143V34.0906Z" fill="#241C24"/>
<path fill-rule="evenodd" clip-rule="evenodd" d="M73.8542 28.6925H78.4951V55.7846L73.8542 51.3267V28.6925Z" fill="#241C24"/>
<path fill-rule="evenodd" clip-rule="evenodd" d="M79.4443 23.2931H84.1808V48.9612H79.4443V23.2931Z" fill="#241C24"/>
<path fill-rule="evenodd" clip-rule="evenodd" d="M85.1252 17.895H90.0511V43.6582H85.1252V17.895Z" fill="#241C24"/>
<path fill-rule="evenodd" clip-rule="evenodd" d="M90.7139 23.0066H95.4517V48.9617H90.7139V23.0066Z" fill="#241C24"/>
<path fill-rule="evenodd" clip-rule="evenodd" d="M96.5879 28.5928H101.229V51.2327L96.5879 55.7844V28.5928Z" fill="#241C24"/>
<path fill-rule="evenodd" clip-rule="evenodd" d="M102.079 33.9946H106.82V45.8365L102.079 50.4787V33.9946Z" fill="#241C24"/>
<path fill-rule="evenodd" clip-rule="evenodd" d="M79.4443 49.535H84.1808V73.3022H79.4443V49.535Z" fill="#B3B31C"/>
<path fill-rule="evenodd" clip-rule="evenodd" d="M85.1252 44.4197H89.7648V73.3022H85.1252V44.4197Z" fill="#B3B31C"/>
<path fill-rule="evenodd" clip-rule="evenodd" d="M90.7139 49.6246H95.4517V73.3014H90.7139V49.6246Z" fill="#B3B31C"/>
</g>
</svg>
