<svg width="126" height="46" viewBox="0 0 126 46" fill="none" xmlns="http://www.w3.org/2000/svg">
<path d="M39.0374 20.669H51.5992V13.469H31.1992V20.669H39.0374Z" fill="#2576D5"/>
<path d="M39.0374 7.46855H51.5992V0.268555H31.1992V7.46855H39.0374Z" fill="#2576D5"/>
<path d="M79.1547 0.268555V22.6237L63.2965 0.268555H55.9757V27.8528H39.2714H31.7994H13.5009L29.0569 0.268555H1.97943V7.4158H15.6315L0 35.0686H31.7994H55.9757H63.3721V13.0179L78.7014 35.0686H86.4V0.268555H79.1547Z" fill="#44454A"/>
<path d="M91.2002 0.268555H99.6002V35.0686H91.2002V0.268555Z" fill="#44454A"/>
<path d="M103.2 0.268555H126V7.66698H118.2V35.0686H110.949V7.66698H103.222L103.2 0.268555Z" fill="#44454A"/>
<path d="M4.18864 41.2653C3.78395 41.0417 3.33472 40.9101 2.87305 40.8796C2.65033 40.8705 2.42867 40.9148 2.22668 41.0087C2.02469 41.1026 1.84826 41.2435 1.71223 41.4195C1.38757 41.8434 1.22317 42.3677 1.24792 42.9003C1.22888 43.1532 1.26009 43.4074 1.33976 43.6483C1.41944 43.8891 1.54601 44.112 1.71223 44.304C1.85978 44.4666 2.03851 44.5982 2.23787 44.6909C2.43724 44.7837 2.6532 44.8357 2.87305 44.8439C3.11755 44.8471 3.36017 44.8009 3.58627 44.7081C3.81238 44.6153 4.01729 44.4779 4.18864 44.304L4.8 45.1601C4.24691 45.6416 3.52936 45.8928 2.79567 45.862C2.42394 45.8895 2.0507 45.8347 1.7028 45.7013C1.35489 45.5679 1.04097 45.3594 0.783587 45.0907C0.50713 44.8021 0.295221 44.4583 0.161827 44.0821C0.0284329 43.7058 -0.0234159 43.3057 0.00971138 42.908C-0.0172211 42.1117 0.259255 41.3347 0.783587 40.7331C1.05391 40.4541 1.37887 40.2335 1.73831 40.0849C2.09774 39.9363 2.48397 39.8629 2.87305 39.8693C3.47278 39.87 4.06113 40.0326 4.57558 40.3398L4.18864 41.2653Z" fill="#2576D5"/>
<path d="M8.71233 40.9074V45.8691H7.61977V40.9074H5.79883V39.8691H10.5988V40.9074H8.71233Z" fill="#2576D5"/>
<path d="M12.9749 45.8689H12V39.9601C12.4372 39.9604 12.874 39.9317 13.3085 39.8743C13.902 39.8361 14.4923 40.0013 15.0096 40.3504C15.1953 40.4961 15.3467 40.6959 15.4498 40.9308C15.5528 41.1656 15.604 41.4279 15.5985 41.693C15.6087 41.9721 15.567 42.2505 15.4766 42.5082C15.3861 42.766 15.249 42.9966 15.0751 43.1838C14.6148 43.5642 14.0645 43.7584 13.5048 43.738H13.0468V45.8689H12.9749ZM12.9749 42.7935H13.3674C13.685 42.8172 14.0019 42.7362 14.2834 42.5594C14.3805 42.468 14.4557 42.3478 14.5016 42.2108C14.5476 42.0738 14.5626 41.9249 14.5451 41.7788C14.5545 41.6455 14.5278 41.5122 14.4689 41.3983C14.4101 41.2845 14.3221 41.1963 14.218 41.1466C13.9292 41.0005 13.6135 40.9467 13.302 40.9905H12.9749V42.7935Z" fill="#2576D5"/>
<path d="M19.8006 45.8589C19.4022 45.8795 19.0036 45.8204 18.6312 45.6856C18.2588 45.5508 17.9209 45.3434 17.6399 45.0769C17.3477 44.7812 17.1231 44.4321 16.9802 44.0514C16.8372 43.6707 16.7789 43.2665 16.8088 42.8637C16.778 42.462 16.836 42.0587 16.979 41.6792C17.1221 41.2997 17.3471 40.9521 17.6399 40.6584C18.2284 40.1506 18.9979 39.8689 19.7964 39.8689C20.595 39.8689 21.3644 40.1506 21.953 40.6584C22.5104 41.2714 22.8065 42.0572 22.7841 42.8637C22.8286 43.2516 22.7838 43.6441 22.6525 44.0142C22.5213 44.3843 22.3067 44.7234 22.0236 45.0085C21.7404 45.2935 21.3952 45.5177 21.0116 45.6658C20.628 45.8139 20.2149 45.8824 19.8006 45.8667V45.8589ZM19.8006 44.7484C20.881 44.7484 21.3713 44.1228 21.3713 42.7777C21.3713 41.4326 20.881 40.7288 19.8006 40.7288C18.7202 40.7288 18.2216 41.4404 18.2216 42.7777C18.2216 44.115 18.7202 44.7484 19.8006 44.7484Z" fill="#2576D5"/>
<path d="M24 45.8689V39.9537H25.1823V43.5321L28.2483 39.8689H28.8V45.7918H27.6256V42.2057L24.5596 45.8689H24Z" fill="#2576D5"/>
<path d="M33.6783 40.9072V45.8689H32.2762V40.9072H30V39.8689H36V40.9072H33.6783Z" fill="#2576D5"/>
<path d="M38.2407 40.91V42.253H40.0372V43.302H38.2407V44.8199H40.7308V45.8689H37.2002V39.8689H40.8002V40.91H38.2407Z" fill="#2576D5"/>
<path d="M45.6907 45.8689V41.0099H44.7837C44.6415 42.0959 44.4317 43.1697 44.1558 44.2234C44.0947 44.5021 43.9826 44.7637 43.8266 44.9921C43.6705 45.2205 43.4739 45.4106 43.2488 45.5507C42.8497 45.7161 42.4258 45.7951 42 45.7835V44.7279C42.1722 44.7333 42.3432 44.6941 42.4994 44.6133C42.6556 44.5324 42.7928 44.4122 42.9 44.2622C43.2076 43.7075 43.4205 43.0944 43.5279 42.4536C43.7348 41.6073 43.8748 40.7424 43.9465 39.8689H46.8V45.7447H45.6907V45.8689Z" fill="#2576D5"/>
<path d="M50.4867 42.1817C50.83 42.1817 51.0875 42.1025 51.4223 42.1025C52.0923 42.0661 52.7565 42.236 53.3106 42.5856C53.5374 42.7593 53.7174 42.9791 53.8366 43.2279C53.9557 43.4766 54.0107 43.7475 53.9972 44.0192C54.0027 44.2795 53.9436 44.5376 53.8246 44.7736C53.7056 45.0097 53.5298 45.2176 53.3106 45.3815C52.7873 45.7281 52.1511 45.8986 51.5081 45.8647H49.1992V39.8689H50.4867V42.1817ZM50.4867 44.8192H51.1733C51.561 44.8583 51.9515 44.7745 52.2806 44.5815C52.4784 44.4151 52.601 44.1861 52.6239 43.94C52.6303 43.706 52.538 43.4788 52.3664 43.3064C52.1948 43.14 51.8514 43.14 51.3364 43.14C51.048 43.1372 50.7602 43.1638 50.4781 43.2192L50.4867 44.8192Z" fill="#2576D5"/>
<path d="M58.8162 45.8689V43.3088H56.4162V45.8689H55.2002V39.8689H56.3922V42.2467H58.7922V39.8689H60.0002V45.8689H58.8162Z" fill="#2576D5"/>
<path d="M64.7985 45.8689L64.3312 44.5056H62.6689L62.2683 45.8689H61.2002L63.3365 39.8689H63.8639L66.0002 45.8689H64.7985ZM63.4633 41.787L62.9293 43.6258H63.9907L63.4633 41.787Z" fill="#2576D5"/>
<path d="M72.0002 45.7907H70.7595V43.5002H70.3718C70.061 43.5074 69.7618 43.6202 69.5226 43.8203C69.2833 44.0203 69.118 44.2959 69.0535 44.6025C68.9778 44.9683 68.7875 45.2999 68.5107 45.5484C68.2426 45.7474 67.9207 45.8592 67.5879 45.8689H67.2002V44.837H67.3553C67.4153 44.8358 67.4742 44.8212 67.5279 44.7941C67.5816 44.7671 67.6286 44.7283 67.6655 44.6806C67.7751 44.5502 67.8306 44.3822 67.8205 44.2116C67.8935 43.9028 68.058 43.6238 68.2921 43.4115C68.5262 43.1992 68.8188 43.0638 69.131 43.0233C68.0532 42.8669 67.5802 42.3119 67.5802 41.5301C67.5802 40.42 68.4254 39.8728 70.0538 39.8728C70.6494 39.8582 71.2453 39.8843 71.8374 39.951V45.7907H72.0002ZM70.7595 42.4761V40.9751C70.5268 40.9751 70.2942 40.8969 70.0616 40.8969C69.3637 40.8969 68.976 41.1314 68.976 41.6787C68.976 42.2259 69.4412 42.4604 70.2942 42.4604L70.7595 42.4761Z" fill="#2576D5"/>
<path d="M80.3996 45.8638H79.9989C79.6587 45.8933 79.3198 45.7947 79.0516 45.5884C78.7835 45.382 78.6063 45.0835 78.5565 44.7539C78.485 44.294 78.2917 43.8602 77.9956 43.4955C77.6903 43.2286 77.2916 43.0859 76.8818 43.0969H76.8016V45.7856H75.5996V39.8689H76.8016V42.2137H76.9619C77.3228 42.2394 77.6833 42.1577 77.9956 41.9792C78.1374 41.8617 78.2531 41.7172 78.3358 41.5546C78.4185 41.392 78.4663 41.2147 78.4764 41.0335C78.5174 40.6951 78.6894 40.3847 78.9572 40.1659C79.2215 40.006 79.5278 39.9245 79.8387 39.9314H80.2394V40.9553H80.1592C79.999 40.9553 79.8387 40.9553 79.8387 41.0335C79.7116 41.1956 79.6289 41.3866 79.5983 41.5884C79.5098 41.9051 79.3243 42.1878 79.0665 42.3988C78.8087 42.6097 78.491 42.7387 78.1559 42.7686C78.5446 42.8673 78.9024 43.0579 79.1976 43.3236C79.4681 43.6046 79.637 43.9641 79.6784 44.3475C79.7585 44.5819 79.7586 44.7383 79.8387 44.8164C79.9188 44.8946 79.999 44.9024 80.1592 44.9024H80.3195V45.8481L80.3996 45.8638Z" fill="#2576D5"/>
<path d="M83.9991 45.8589C83.6803 45.8795 83.3614 45.8204 83.0634 45.6856C82.7654 45.5507 82.4951 45.3432 82.2702 45.0765C82.0378 44.7797 81.8589 44.4304 81.7446 44.0498C81.6303 43.6692 81.5829 43.2652 81.6053 42.8624C81.5823 42.4608 81.6294 42.0578 81.7438 41.6784C81.8581 41.2989 82.0373 40.9511 82.2702 40.6562C82.4941 40.3879 82.7643 40.1792 83.0625 40.0443C83.3608 39.9093 83.6801 39.8512 83.9991 39.8738C84.3171 39.8508 84.6356 39.9088 84.9328 40.0438C85.23 40.1788 85.499 40.3877 85.7213 40.6562C86.1673 41.2695 86.4042 42.0556 86.3863 42.8624C86.4219 43.2505 86.386 43.6431 86.281 44.0134C86.176 44.3837 86.0043 44.723 85.7777 45.0081C85.5512 45.2933 85.275 45.5176 84.968 45.6657C84.6611 45.8139 84.3306 45.8824 83.9991 45.8667V45.8589ZM83.9991 44.7479C84.8635 44.7479 85.2625 44.122 85.2625 42.7764C85.2625 41.4307 84.8635 40.7266 83.9991 40.7266C83.1347 40.7266 82.7357 41.4386 82.7357 42.7764C82.7357 44.1142 83.1347 44.7479 83.9991 44.7479Z" fill="#2576D5"/>
<path d="M94.8006 45.7907H93.632L93.0829 42.4739L91.4359 45.8689H91.0437L89.4045 42.4739L88.8555 45.7907H87.6006L88.7771 39.8689H89.3261L91.279 43.7333L93.2398 39.8689H93.7888L94.8006 45.7907Z" fill="#2576D5"/>
<path d="M100.719 45.8689H99.4146V40.9072H97.2224V45.8689H96V39.8689H100.8V45.8689H100.719Z" fill="#2576D5"/>
<path d="M106.462 45.8689L105.877 44.5056H103.83L103.329 45.8689H102L104.666 39.8689H105.334L108 45.8689H106.462ZM104.791 41.787L104.123 43.6258H105.501L104.791 41.787Z" fill="#2576D5"/>
<path d="M111.899 45.8689V43.3088H110.099V45.8689H109.199V39.8689H110.099V42.2467H111.899V39.8689H112.799V45.8689H111.899Z" fill="#2576D5"/>
<path d="M115.2 45.8689V39.9537H116.377V43.5321L119.455 39.8689H120V45.7918H118.824V42.2057L115.745 45.8689H115.2Z" fill="#2576D5"/>
<path d="M126 45.7907H124.759V43.5002H124.372C124.062 43.5092 123.765 43.6227 123.527 43.8226C123.29 44.0225 123.125 44.2972 123.061 44.6025C122.986 44.9683 122.795 45.2999 122.518 45.5484C122.247 45.7471 121.923 45.8588 121.588 45.8689H121.2V44.837H121.355C121.415 44.8358 121.474 44.8212 121.528 44.7941C121.582 44.7671 121.629 44.7283 121.665 44.6806C121.775 44.5502 121.831 44.3822 121.821 44.2116C121.899 43.9042 122.066 43.6271 122.301 43.4156C122.535 43.204 122.827 43.0675 123.139 43.0233C122.053 42.8669 121.588 42.3119 121.588 41.5301C121.588 40.42 122.441 39.8728 124.062 39.8728C124.657 39.8582 125.253 39.8843 125.845 39.951V45.7907H126ZM124.759 42.4761V40.9751C124.527 40.9751 124.294 40.8969 124.062 40.8969C123.371 40.8969 122.984 41.1314 122.984 41.6787C122.984 42.2259 123.449 42.4604 124.294 42.4604L124.759 42.4761Z" fill="#2576D5"/>
</svg>
