<svg width="117" height="18" viewBox="0 0 117 18" fill="none" xmlns="http://www.w3.org/2000/svg">
<path d="M12.9987 0.542236H0V16.9914H12.9987C21.1184 16.9914 24.4586 13.267 24.4586 8.7668C24.4586 4.26657 21.1184 0.542236 12.9987 0.542236ZM12.6258 12.9893H4.83305V4.5521H12.6258C18.5025 4.5521 19.5018 6.46392 19.5018 8.7668C19.5018 11.0697 18.5163 12.9893 12.6258 12.9893Z" fill="#44454A"/>
<path d="M57.2409 0.542236H52.4155V16.9898H57.2409V0.542236Z" fill="#44454A"/>
<path d="M45.0982 0.542236L36.737 12.3654L28.3743 0.542236H22.6963L34.3304 16.9898H39.1436L50.7763 0.542236H45.0982Z" fill="#44454A"/>
<path d="M110.45 16.9894H116.128L104.494 0.540283H98.4037L86.7695 16.9894H92.4445L94.5959 13.9479H108.294L110.45 16.9894ZM97.218 10.2468L101.451 4.26461L105.682 10.2468H97.218Z" fill="#44454A"/>
<path d="M72.665 4.23319C78.7907 4.23319 84.918 5.21703 85.9952 5.39859V1.34993C85.2083 1.19475 80.3156 0.263672 72.6711 0.263672C67.3552 0.263672 63.526 1.46322 61.286 3.83282C59.2813 5.95103 59.3454 8.27253 59.3454 8.29581V8.32219C59.2842 9.23892 59.4035 10.1588 59.6963 11.0282C59.9891 11.8976 60.4495 12.6991 61.0507 13.3857C62.0362 14.5247 63.4114 15.4326 65.1381 16.0781C67.2559 16.8664 69.9237 17.2668 73.0684 17.2668C80.5678 17.2668 85.2587 16.0548 85.9952 15.85V6.83091H70.5838V10.1269H81.3562V12.8333C78.5603 13.2682 75.7348 13.4757 72.9064 13.454C69.0497 13.454 66.4414 12.6548 65.1549 11.0813C64.2121 9.92675 64.3466 8.77066 64.3741 8.59841C64.3618 8.44323 64.3343 7.44697 65.2236 6.43985C66.5178 4.9734 69.0207 4.23319 72.665 4.23319Z" fill="#44454A"/>
</svg>
